<?xml version="1.0" encoding="utf-8"?>
<!-- Generator: Adobe Illustrator 24.0.1, SVG Export Plug-In . SVG Version: 6.00 Build 0)  -->
<svg version="1.1" id="Layer_1" xmlns="http://www.w3.org/2000/svg" xmlns:xlink="http://www.w3.org/1999/xlink" x="0px" y="0px"
	 viewBox="0 0 507.4 64.2" style="enable-background:new 0 0 507.4 64.2;" xml:space="preserve">
<style type="text/css">
	.st0{fill:#606061;}
	.st1{fill:#BA1F40;}
	.st2{fill:#FFFFFF;}
	.st3{fill:#BB0E3D;}
	.st4{fill:#606060;}
</style>
<g>
	<g>
		<path class="st0" d="M84.2,32L67.8,2.4H8.4C4.9,2.4,2,5.3,2,8.8v46.5c0,3.5,2.9,6.4,6.4,6.4h59.4L84.2,32z"/>
		<path class="st1" d="M82.6,5.5c-1.2-1.9-3.3-3.1-5.5-3.1h-4.9L88.8,32L72.2,61.6h4.9c2.3,0,4.4-1.2,5.5-3.1L97.4,32L82.6,5.5z"/>
	</g>
	<g>
		<rect x="37.1" y="18.9" class="st2" width="4.4" height="26.3"/>
		<polygon class="st2" points="28.3,18.9 28.3,38.2 16.3,18.9 11.9,18.9 11.9,45.2 16.3,45.2 16.3,25.9 28.3,45.2 32.7,45.2 
			32.7,18.9 		"/>
		<polygon class="st2" points="62.3,18.9 62.3,29.8 50.2,29.8 50.2,18.9 45.9,18.9 45.9,45.2 50.2,45.2 50.2,34.2 62.3,34.2 
			62.3,45.2 66.7,45.2 66.7,18.9 		"/>
	</g>
</g>
<g>
	<g>
		<path class="st3" d="M120.2,11.2h2.7v12.3h-2.7l-5.8-7.7v7.7h-2.7V11.2h2.5l6,7.9V11.2z"/>
		<path class="st3" d="M134.8,23.5l-1.1-2.6h-5.2l-1.1,2.6h-3l5.3-12.3h2.6l5.3,12.3H134.8z M131.1,14.8l-1.5,3.5h3.1L131.1,14.8z"
			/>
		<path class="st3" d="M143.3,13.6v9.9h-2.7v-9.9h-3.5v-2.4h9.6v2.4H143.3z"/>
		<path class="st3" d="M148.8,11.2h2.7v12.3h-2.7V11.2z"/>
		<path class="st3" d="M165,21.7c-1.2,1.2-2.7,1.9-4.6,1.9c-1.9,0-3.3-0.7-4.6-1.9c-1.2-1.2-1.9-2.7-1.9-4.5s0.7-3.3,1.9-4.5
			c1.2-1.2,2.7-1.9,4.6-1.9c1.9,0,3.3,0.7,4.6,1.9c1.2,1.2,1.9,2.7,1.9,4.5C166.8,19.1,166.2,20.5,165,21.7z M164,17.2
			c0-1.1-0.3-2-1.1-2.9c-0.7-0.8-1.5-1.2-2.6-1.2c-1.1,0-1.9,0.4-2.6,1.2c-0.7,0.8-1.1,1.8-1.1,2.9c0,1.1,0.3,2,1.1,2.7
			c0.7,0.8,1.5,1.1,2.6,1.1c1.1,0,1.9-0.3,2.6-1.1C163.6,19.3,164,18.3,164,17.2z"/>
		<path class="st3" d="M177.7,11.2h2.7v12.3h-2.7l-5.8-7.7v7.7h-2.7V11.2h2.5l6,7.9V11.2z"/>
		<path class="st3" d="M192.1,23.5l-1.1-2.6h-5.2l-1.1,2.6h-3l5.3-12.3h2.6l5.3,12.3H192.1z M188.5,14.8l-1.5,3.5h3.1L188.5,14.8z"
			/>
		<path class="st3" d="M196.5,23.5V11.2h2.7v9.9h5.3v2.4H196.5z"/>
		<path class="st3" d="M216.7,21.1c1.3,0,2.4-0.5,3.3-1.6l1.8,1.8c-1.4,1.5-3.1,2.3-4.9,2.3c-1.9,0-3.4-0.5-4.7-1.8
			c-1.2-1.2-1.9-2.7-1.9-4.5c0-1.9,0.7-3.3,1.9-4.6c1.2-1.2,2.7-1.9,4.6-1.9c2,0,3.7,0.8,5,2.3l-1.8,2c-0.9-1.1-2-1.6-3.2-1.6
			c-1,0-1.9,0.3-2.6,1c-0.8,0.7-1.1,1.5-1.1,2.7s0.3,2.1,1,2.7C215,20.7,215.7,21.1,216.7,21.1z"/>
		<path class="st3" d="M232.6,23.5l-1.1-2.6h-5.2l-1.1,2.6h-3l5.3-12.3h2.6l5.3,12.3H232.6z M228.9,14.8l-1.5,3.5h3.1L228.9,14.8z"
			/>
		<path class="st3" d="M245.5,11.2h2.7v12.3h-2.7l-5.8-7.7v7.7H237V11.2h2.5l6,7.9V11.2z"/>
		<path class="st3" d="M257,21.1c1.3,0,2.4-0.5,3.3-1.6l1.8,1.8c-1.4,1.5-3.1,2.3-4.9,2.3s-3.4-0.5-4.7-1.8
			c-1.2-1.2-1.9-2.7-1.9-4.5c0-1.9,0.7-3.3,1.9-4.6c1.2-1.2,2.7-1.9,4.6-1.9c2,0,3.7,0.8,5,2.3l-1.8,2c-0.9-1.1-2-1.6-3.2-1.6
			c-1,0-1.9,0.3-2.6,1c-0.8,0.7-1.1,1.5-1.1,2.7s0.3,2.1,1,2.7C255.1,20.7,256,21.1,257,21.1z"/>
		<path class="st3" d="M273,11.2v2.4h-6.1v2.5h5.5v2.3h-5.5v2.6h6.3v2.4h-9V11.2H273z"/>
		<path class="st3" d="M285.6,15.2c0,2-0.8,3.2-2.3,3.8l3.1,4.4h-3.4l-2.7-3.9h-1.9v3.9h-2.7V11.2h4.6c1.9,0,3.3,0.3,4.1,1
			S285.6,13.8,285.6,15.2z M282.3,16.7c0.3-0.3,0.5-0.8,0.5-1.4c0-0.7-0.2-1.1-0.5-1.3c-0.3-0.2-1-0.3-1.9-0.3h-2.1v3.6h2
			C281.3,17.2,281.8,17,282.3,16.7z"/>
		<path class="st3" d="M293,11.2h2.7v12.3H293V11.2z"/>
		<path class="st3" d="M307.3,11.2h2.7v12.3h-2.7l-5.8-7.7v7.7h-2.7V11.2h2.5l6,7.9V11.2z"/>
		<path class="st3" d="M316,13.6c-0.2,0.2-0.4,0.5-0.4,0.9c0,0.3,0.1,0.7,0.4,0.9c0.3,0.2,1.1,0.4,2.2,0.8c1.1,0.3,2.1,0.8,2.7,1.3
			c0.7,0.5,1,1.4,1,2.5c0,1.1-0.4,2-1.2,2.6c-0.8,0.7-1.9,1-3.3,1c-2,0-3.7-0.8-5.3-2.2l1.6-2c1.3,1.2,2.5,1.8,3.6,1.8
			c0.5,0,0.9-0.1,1.2-0.3s0.4-0.5,0.4-0.9c0-0.3-0.1-0.7-0.4-0.9c-0.3-0.2-0.9-0.4-1.8-0.7c-1.4-0.3-2.5-0.8-3.2-1.3
			c-0.7-0.5-1-1.4-1-2.5s0.4-2.1,1.2-2.7c0.9-0.7,1.9-1,3.2-1c0.8,0,1.6,0.1,2.4,0.4c0.8,0.3,1.5,0.7,2.2,1.2l-1.4,2
			c-1.1-0.8-2.2-1.2-3.3-1.2C316.6,13.3,316.2,13.4,316,13.6z"/>
		<path class="st3" d="M329.3,13.6v9.9h-2.7v-9.9h-3.5v-2.4h9.6v2.4H329.3z"/>
		<path class="st3" d="M334.8,11.2h2.7v12.3h-2.7V11.2z"/>
		<path class="st3" d="M345.8,13.6v9.9H343v-9.9h-3.5v-2.4h9.6v2.4H345.8z"/>
		<path class="st3" d="M354.4,20.3c0.4,0.5,1.1,0.9,1.9,0.9c0.8,0,1.4-0.3,1.9-0.9c0.4-0.5,0.7-1.3,0.7-2.3v-6.8h2.7v6.9
			c0,1.8-0.4,3.2-1.4,4.1c-1,1-2.2,1.4-3.7,1.4c-1.5,0-2.7-0.4-3.7-1.4c-1-1-1.5-2.3-1.5-4.1v-6.9h2.7V18
			C353.8,19,354,19.7,354.4,20.3z"/>
		<path class="st3" d="M369.6,13.6v9.9h-2.7v-9.9h-3.5v-2.4h9.6v2.4H369.6z"/>
		<path class="st3" d="M383.9,11.2v2.4h-6.1v2.5h5.5v2.3h-5.5v2.6h6.3v2.4h-9V11.2H383.9z"/>
	</g>
</g>
<g>
	<path class="st4" d="M111.4,36.7h3.6v16.1h-3.6V36.7z"/>
	<path class="st4" d="M122,45.8v6.9h-3.4V40.4h3.4v1.4c1.1-1.1,2.2-1.5,3.5-1.5c1.3,0,2.4,0.4,3.3,1.4c0.9,0.9,1.3,2.2,1.3,3.7V53
		h-3.4v-7c0-1.9-0.7-2.9-2.1-2.9c-0.7,0-1.3,0.2-1.8,0.8C122.3,44.2,122,45,122,45.8z"/>
	<path class="st4" d="M137.2,42.9v5.6c0,0.4,0.1,0.9,0.3,1.1c0.2,0.2,0.5,0.4,0.9,0.4c0.7,0,1.2-0.3,1.6-0.9l1.3,2.4
		c-1.1,1-2.2,1.4-3.4,1.4s-2.2-0.4-3.1-1.2c-0.9-0.8-1.2-1.9-1.2-3.2v-5.7h-1.4v-2.5h1.4v-3.7h3.5v3.7h3v2.5
		C140.2,42.9,137.2,42.9,137.2,42.9z"/>
	<path class="st4" d="M154,51c-1.4,1.3-3.1,2-4.9,2s-3.4-0.5-4.7-1.8c-1.2-1.2-1.9-2.7-1.9-4.7s0.7-3.5,1.9-4.6
		c1.2-1.1,2.7-1.8,4.4-1.8c1.8,0,3.2,0.5,4.4,1.5c1.2,1,1.8,2.4,1.8,4.3v1.9h-9c0.1,0.7,0.4,1.2,1.1,1.6c0.5,0.4,1.3,0.7,2,0.7
		c1.2,0,2.2-0.4,3-1.2L154,51z M150.6,43.6c-0.4-0.4-1.1-0.5-1.8-0.5c-0.7,0-1.3,0.2-1.9,0.7c-0.5,0.4-0.9,1-1,1.6h5.5
		C151.4,44.6,151.1,44.1,150.6,43.6z"/>
	<path class="st4" d="M166.6,50.7c-1.1,1.2-2.4,1.9-4.1,1.9s-3-0.5-4.1-1.6c-1.1-1.1-1.6-2.5-1.6-4.4s0.5-3.3,1.8-4.5
		c1.1-1.2,2.4-1.8,3.9-1.8c1.4,0,2.7,0.7,3.6,1.9v-1.6h3.4v10.7c0,1.1-0.2,2.1-0.5,3c-0.4,0.9-0.9,1.5-1.5,2c-1.3,1-2.7,1.5-4.5,1.5
		c-0.9,0-1.9-0.1-2.9-0.4c-1-0.3-1.8-0.8-2.5-1.3l1.3-2.6c1.1,0.9,2.3,1.3,3.6,1.3s2.3-0.3,3-1C166.3,53.1,166.6,52.1,166.6,50.7z
		 M166.2,46.4c0-1-0.3-1.8-0.9-2.3c-0.5-0.5-1.2-0.9-2.1-0.9c-0.8,0-1.5,0.3-2.1,0.9c-0.5,0.5-0.9,1.3-0.9,2.3c0,1,0.3,1.8,0.9,2.4
		s1.3,0.9,2.1,0.9c0.8,0,1.5-0.3,2.1-0.9C165.8,48.2,166.2,47.4,166.2,46.4z"/>
	<path class="st4" d="M179.3,43.4c-1,0-1.8,0.3-2.3,1.1c-0.5,0.8-0.8,1.6-0.8,2.9v5.4h-3.4V40.4h3.4V42c0.4-0.5,1-1,1.6-1.3
		c0.7-0.3,1.3-0.5,2.1-0.5v3.3C180,43.4,179.3,43.4,179.3,43.4z"/>
	<path class="st4" d="M192.7,52.7h-3.3v-1.5c-0.9,1.1-2,1.6-3.3,1.6s-2.4-0.3-3.3-1.1s-1.3-1.8-1.3-3.1c0-1.3,0.4-2.2,1.4-2.9
		c0.9-0.7,2.2-1,3.7-1h2.6v-0.1c0-1.3-0.7-2-2.1-2c-0.5,0-1.2,0.1-1.9,0.3c-0.7,0.2-1.2,0.5-1.6,0.9l-1.5-2.2
		c1.6-1.2,3.5-1.8,5.6-1.8c1.5,0,2.7,0.3,3.7,1.1c1,0.8,1.4,2,1.4,3.6v8H192.7z M189.2,48v-0.5H187c-1.4,0-2.1,0.4-2.1,1.3
		c0,0.4,0.2,0.8,0.5,1c0.3,0.2,0.8,0.3,1.4,0.3c0.7,0,1.2-0.2,1.6-0.5C189,49.2,189.2,48.7,189.2,48z"/>
	<path class="st4" d="M199.8,42.9v5.6c0,0.4,0.1,0.9,0.3,1.1c0.2,0.2,0.5,0.4,0.9,0.4c0.7,0,1.2-0.3,1.6-0.9l1.3,2.4
		c-1.1,1-2.2,1.4-3.4,1.4c-1.2,0-2.2-0.4-3.1-1.2c-0.9-0.8-1.2-1.9-1.2-3.2v-5.7h-1.4v-2.5h1.4v-3.7h3.5v3.7h3v2.5
		C202.8,42.9,199.8,42.9,199.8,42.9z"/>
	<path class="st4" d="M216.6,51c-1.4,1.3-3.1,2-4.9,2c-1.9,0-3.4-0.5-4.7-1.8c-1.2-1.2-1.9-2.7-1.9-4.7s0.7-3.5,1.9-4.6
		s2.7-1.8,4.4-1.8c1.8,0,3.2,0.5,4.4,1.5c1.2,1,1.8,2.4,1.8,4.3v1.9h-9c0.1,0.7,0.4,1.2,1.1,1.6c0.5,0.4,1.3,0.7,2,0.7
		c1.2,0,2.2-0.4,3-1.2L216.6,51z M213.2,43.6c-0.4-0.4-1.1-0.5-1.8-0.5c-0.7,0-1.3,0.2-1.9,0.7c-0.5,0.4-0.9,1-1,1.6h5.5
		C214,44.6,213.7,44.1,213.2,43.6z"/>
	<path class="st4" d="M225,53c-1.4,0-2.7-0.7-3.9-1.9c-1.1-1.2-1.8-2.7-1.8-4.6s0.5-3.4,1.6-4.5c1.1-1.2,2.4-1.8,3.9-1.8
		c1.5,0,2.7,0.5,3.7,1.5v-6h3.5v17.1h-3.5v-1.6C227.7,52.4,226.5,53,225,53z M222.9,46.6c0,1,0.3,1.9,0.9,2.4c0.5,0.7,1.3,1,2.1,1
		c0.8,0,1.4-0.3,2.1-1c0.5-0.7,0.9-1.4,0.9-2.4c0-1-0.3-1.9-0.9-2.5c-0.5-0.7-1.2-1-2.1-1c-0.8,0-1.5,0.3-2.1,1
		C223.2,44.7,222.9,45.6,222.9,46.6z"/>
	<path class="st4" d="M249.2,49.6c1.8,0,3.2-0.7,4.3-2.1l2.3,2.4c-1.9,2.1-3.9,3.1-6.5,3.1c-2.5,0-4.5-0.8-6.1-2.3
		c-1.6-1.5-2.4-3.5-2.4-5.9c0-2.4,0.8-4.4,2.4-6s3.6-2.4,6-2.4c2.6,0,4.8,1,6.6,3.1l-2.2,2.5c-1.1-1.4-2.5-2.1-4.3-2.1
		c-1.3,0-2.5,0.4-3.5,1.3c-1,0.9-1.4,2.1-1.4,3.6c0,1.5,0.4,2.7,1.3,3.6C246.5,49.2,248,49.6,249.2,49.6z"/>
	<path class="st4" d="M268.7,52.7h-3.3v-1.5c-0.9,1.1-2,1.6-3.3,1.6c-1.3,0-2.4-0.3-3.3-1.1c-0.9-0.8-1.3-1.8-1.3-3.1
		c0-1.3,0.4-2.2,1.4-2.9c0.9-0.7,2.2-1,3.7-1h2.6v-0.1c0-1.3-0.7-2-2.1-2c-0.5,0-1.2,0.1-1.9,0.3c-0.7,0.2-1.2,0.5-1.6,0.9l-1.5-2.2
		c1.6-1.2,3.5-1.8,5.6-1.8c1.5,0,2.7,0.3,3.7,1.1s1.4,2,1.4,3.6v8H268.7z M265.3,48v-0.5h-2.2c-1.4,0-2.1,0.4-2.1,1.3
		c0,0.4,0.2,0.8,0.5,1c0.3,0.2,0.8,0.3,1.4,0.3s1.2-0.2,1.6-0.5C265,49.2,265.3,48.7,265.3,48z"/>
	<path class="st4" d="M275.4,45.8v6.9H272V40.4h3.4v1.4c1.1-1.1,2.2-1.5,3.5-1.5c1.3,0,2.4,0.4,3.3,1.4c0.9,0.9,1.3,2.2,1.3,3.7V53
		h-3.4v-7c0-1.9-0.7-2.9-2.1-2.9c-0.7,0-1.3,0.2-1.8,0.8C275.6,44.2,275.4,45,275.4,45.8z"/>
	<path class="st4" d="M286.9,38.8c-0.4-0.4-0.5-0.9-0.5-1.4c0-0.5,0.2-1.1,0.5-1.4c0.4-0.4,0.9-0.5,1.4-0.5s1.1,0.2,1.4,0.5
		c0.4,0.4,0.5,0.9,0.5,1.4c0,0.5-0.2,1.1-0.5,1.4c-0.4,0.4-0.9,0.5-1.4,0.5C287.8,39.4,287.2,39.3,286.9,38.8z M290.1,52.7h-3.4
		V40.4h3.4V52.7z"/>
	<path class="st4" d="M296.8,45.8v6.9h-3.4V40.4h3.4v1.4c1.1-1.1,2.2-1.5,3.5-1.5c1.3,0,2.4,0.4,3.3,1.4c0.9,0.9,1.3,2.2,1.3,3.7V53
		h-3.4v-7c0-1.9-0.7-2.9-2.1-2.9c-0.7,0-1.3,0.2-1.8,0.8C297,44.2,296.8,45,296.8,45.8z"/>
	<path class="st4" d="M318.8,51c-1.4,1.3-3.1,2-4.9,2c-1.9,0-3.4-0.5-4.7-1.8c-1.2-1.2-1.9-2.7-1.9-4.7s0.7-3.5,1.9-4.6
		c1.2-1.1,2.7-1.8,4.4-1.8c1.8,0,3.2,0.5,4.4,1.5c1.2,1,1.8,2.4,1.8,4.3v1.9h-9c0.1,0.7,0.4,1.2,1.1,1.6c0.5,0.4,1.3,0.7,2,0.7
		c1.2,0,2.2-0.4,3-1.2L318.8,51z M315.4,43.6c-0.4-0.4-1.1-0.5-1.8-0.5c-0.7,0-1.3,0.2-1.9,0.7c-0.5,0.4-0.9,1-1,1.6h5.5
		C316.2,44.6,316,44.1,315.4,43.6z"/>
	<path class="st4" d="M341,38.8c1.5,1.4,2.3,3.4,2.3,5.8c0,2.5-0.8,4.5-2.2,5.9c-1.4,1.4-3.7,2.2-6.8,2.2h-5.5v-16h5.7
		C337.2,36.7,339.4,37.4,341,38.8z M338.3,48.4c0.9-0.9,1.3-2.1,1.3-3.6c0-1.5-0.4-2.9-1.3-3.6s-2.2-1.3-4.1-1.3h-2v9.8h2.3
		C336.2,49.6,337.4,49.2,338.3,48.4z"/>
	<path class="st4" d="M356.4,52.7h-3.3v-1.5c-0.9,1.1-2,1.6-3.3,1.6s-2.4-0.3-3.3-1.1s-1.3-1.8-1.3-3.1c0-1.3,0.4-2.2,1.4-2.9
		c0.9-0.7,2.2-1,3.7-1h2.6v-0.1c0-1.3-0.7-2-2.1-2c-0.5,0-1.2,0.1-1.9,0.3c-0.7,0.2-1.2,0.5-1.6,0.9l-1.5-2.2
		c1.6-1.2,3.5-1.8,5.6-1.8c1.5,0,2.7,0.3,3.7,1.1c1,0.8,1.4,2,1.4,3.6v8H356.4z M352.9,48v-0.5h-2.2c-1.4,0-2.1,0.4-2.1,1.3
		c0,0.4,0.2,0.8,0.5,1c0.3,0.2,0.8,0.3,1.4,0.3s1.2-0.2,1.6-0.5C352.7,49.2,352.9,48.7,352.9,48z"/>
	<path class="st4" d="M363.5,42.9v5.6c0,0.4,0.1,0.9,0.3,1.1c0.2,0.2,0.5,0.4,0.9,0.4c0.7,0,1.2-0.3,1.6-0.9l1.3,2.4
		c-1.1,1-2.2,1.4-3.4,1.4s-2.2-0.4-3.1-1.2c-0.9-0.8-1.2-1.9-1.2-3.2v-5.7h-1.4v-2.5h1.4v-3.7h3.5v3.7h3v2.5
		C366.5,42.9,363.5,42.9,363.5,42.9z"/>
	<path class="st4" d="M380.1,52.7h-3.3v-1.5c-0.9,1.1-2,1.6-3.3,1.6c-1.3,0-2.4-0.3-3.3-1.1c-0.9-0.8-1.3-1.8-1.3-3.1
		c0-1.3,0.4-2.2,1.4-2.9c0.9-0.7,2.2-1,3.7-1h2.6v-0.1c0-1.3-0.7-2-2.1-2c-0.5,0-1.2,0.1-1.9,0.3c-0.7,0.2-1.2,0.5-1.6,0.9l-1.5-2.2
		c1.6-1.2,3.5-1.8,5.6-1.8c1.5,0,2.7,0.3,3.7,1.1s1.4,2,1.4,3.6v8H380.1z M376.6,48v-0.5h-2.2c-1.4,0-2.1,0.4-2.1,1.3
		c0,0.4,0.2,0.8,0.5,1c0.3,0.2,0.8,0.3,1.4,0.3c0.7,0,1.2-0.2,1.6-0.5C376.4,49.2,376.6,48.7,376.6,48z"/>
	<path class="st4" d="M397.1,49.6c1.8,0,3.2-0.7,4.3-2.1l2.3,2.4c-1.9,2.1-3.9,3.1-6.5,3.1c-2.5,0-4.5-0.8-6.1-2.3
		c-1.6-1.5-2.4-3.5-2.4-5.9c0-2.4,0.8-4.4,2.4-6s3.6-2.4,6-2.4c2.6,0,4.8,1,6.6,3.1l-2.2,2.5c-1.1-1.4-2.5-2.1-4.3-2.1
		c-1.3,0-2.5,0.4-3.5,1.3c-1,0.9-1.4,2.1-1.4,3.6c0,1.5,0.4,2.7,1.3,3.6C394.5,49.2,395.8,49.6,397.1,49.6z"/>
	<path class="st4" d="M418,46.6c0,1.8-0.7,3.3-1.9,4.5c-1.2,1.2-2.9,1.9-4.7,1.9s-3.4-0.7-4.7-1.9c-1.3-1.2-1.9-2.7-1.9-4.5
		s0.7-3.3,1.9-4.5c1.2-1.2,2.9-1.9,4.7-1.9s3.4,0.7,4.7,1.9C417.5,43.3,418,44.8,418,46.6z M408.5,46.6c0,1,0.3,1.9,0.9,2.5
		c0.5,0.7,1.3,1,2.2,1c0.9,0,1.6-0.3,2.2-1c0.5-0.7,0.9-1.4,0.9-2.5c0-1-0.3-1.9-0.9-2.5c-0.5-0.7-1.3-1-2.2-1c-0.9,0-1.6,0.3-2.2,1
		C408.7,44.7,408.5,45.6,408.5,46.6z"/>
	<path class="st4" d="M432,46.2v6.7h-3.4v-6.8c0-1-0.1-1.8-0.4-2.2c-0.3-0.4-0.8-0.7-1.4-0.7c-0.7,0-1.2,0.2-1.8,0.8
		c-0.5,0.5-0.8,1.2-0.8,2.2v6.7h-3.4V40.4h3.4v1.4c1-1.1,2.1-1.6,3.3-1.6c0.8,0,1.5,0.2,2.1,0.7s1.1,1,1.4,1.6
		c0.4-0.8,1.1-1.3,2-1.8c0.8-0.4,1.6-0.7,2.4-0.7c1.4,0,2.6,0.4,3.5,1.3c0.9,0.9,1.3,2.1,1.3,3.7v7.6h-3.5v-6.8
		c0-1.9-0.7-2.9-2.1-2.9c-0.7,0-1.3,0.2-1.8,0.8C432.3,44.4,432,45.2,432,46.2z"/>
	<path class="st4" d="M454.7,46.2v6.7h-3.5v-6.8c0-1-0.1-1.8-0.4-2.2c-0.3-0.4-0.8-0.7-1.4-0.7c-0.7,0-1.2,0.2-1.8,0.8
		c-0.5,0.5-0.8,1.2-0.8,2.2v6.7h-3.4V40.4h3.4v1.4c1-1.1,2.1-1.6,3.3-1.6c0.8,0,1.5,0.2,2.1,0.7c0.5,0.4,1.1,1,1.4,1.6
		c0.4-0.8,1.1-1.3,2-1.8c0.8-0.4,1.6-0.7,2.4-0.7c1.4,0,2.6,0.4,3.5,1.3c0.9,0.9,1.3,2.1,1.3,3.7v7.6h-3.5v-6.8
		c0-1.9-0.7-2.9-2.1-2.9c-0.7,0-1.3,0.2-1.8,0.8C454.9,44.4,454.7,45.2,454.7,46.2z"/>
	<path class="st4" d="M478.2,46.6c0,1.8-0.7,3.3-1.9,4.5c-1.2,1.2-2.9,1.9-4.7,1.9s-3.4-0.7-4.7-1.9c-1.3-1.2-1.9-2.7-1.9-4.5
		s0.7-3.3,1.9-4.5c1.2-1.2,2.9-1.9,4.7-1.9s3.4,0.7,4.7,1.9C477.7,43.3,478.2,44.8,478.2,46.6z M468.7,46.6c0,1,0.3,1.9,0.9,2.5
		c0.5,0.7,1.3,1,2.2,1c0.9,0,1.6-0.3,2.2-1c0.5-0.7,0.9-1.4,0.9-2.5c0-1-0.3-1.9-0.9-2.5c-0.5-0.7-1.3-1-2.2-1c-0.9,0-1.6,0.3-2.2,1
		C468.9,44.7,468.7,45.6,468.7,46.6z"/>
	<path class="st4" d="M484.3,45.8v6.9h-3.4V40.4h3.4v1.4c1.1-1.1,2.2-1.5,3.5-1.5c1.3,0,2.4,0.4,3.3,1.4c0.9,0.9,1.3,2.2,1.3,3.7V53
		H489v-7c0-1.9-0.7-2.9-2.1-2.9c-0.7,0-1.3,0.2-1.8,0.8C484.6,44.2,484.3,45,484.3,45.8z"/>
	<path class="st4" d="M504.9,48.9c0,1.2-0.4,2.2-1.3,3c-0.9,0.8-2.1,1.1-3.4,1.1c-0.9,0-1.9-0.2-2.9-0.5s-1.9-0.8-2.7-1.4l1.5-2.2
		c1.3,1,2.6,1.5,4.2,1.5c0.4,0,0.8-0.1,1.1-0.2c0.2-0.2,0.4-0.4,0.4-0.7c0-0.3-0.2-0.5-0.5-0.8c-0.3-0.2-0.9-0.4-1.5-0.7
		c-0.7-0.2-1.2-0.4-1.5-0.5c-0.3-0.1-0.8-0.3-1.2-0.7c-1-0.5-1.4-1.4-1.4-2.6s0.4-2.1,1.4-2.9c0.9-0.8,2.1-1.1,3.6-1.1
		c1.5,0,3,0.4,4.4,1.4l-1.3,2.3c-1.1-0.8-2.2-1.1-3.2-1.1c-1.1,0-1.6,0.3-1.6,0.9c0,0.3,0.2,0.5,0.5,0.8c0.3,0.2,0.9,0.4,1.6,0.7
		c0.8,0.2,1.3,0.4,1.6,0.5c0.3,0.1,0.8,0.3,1.2,0.7C504.5,46.8,504.9,47.7,504.9,48.9z"/>
</g>
</svg>
