<?xml version="1.0" encoding="utf-8"?>
<!-- Generator: Adobe Illustrator 24.0.0, SVG Export Plug-In . SVG Version: 6.00 Build 0)  -->
<svg version="1.1" id="Layer_1" xmlns="http://www.w3.org/2000/svg" xmlns:xlink="http://www.w3.org/1999/xlink" x="0px" y="0px"
	 viewBox="0 0 475.7 500" style="enable-background:new 0 0 475.7 500;" xml:space="preserve">
<style type="text/css">
	.st0{fill:#FFFFFF;stroke:#000000;stroke-width:8;stroke-miterlimit:10;}
	.st1{fill-rule:evenodd;clip-rule:evenodd;}
	.st2{fill-rule:evenodd;clip-rule:evenodd;fill:#519CCC;}
	.st3{fill:none;stroke:#000000;stroke-width:2;stroke-miterlimit:10;}
	.st4{fill:none;stroke:#000000;stroke-width:8;stroke-miterlimit:10;}
</style>
<ellipse class="st0" cx="167.2" cy="404.9" rx="160.1" ry="86.3"/>
<ellipse class="st0" cx="167.2" cy="374.2" rx="160.1" ry="86.3"/>
<g>
	<g transform="translate(-240.000000, -1221.000000)">
		<g transform="translate(240.000000, 1221.000000)">
			<path class="st1" d="M419.8,102.3L419.8,102.3l-24.4-24.4l9.7,9.7l0,0l-19.5-19.5l0,0L371,53.6l9.7-9.7l14.6,14.6l0,0l19.5,19.5
				l0,0l14.6,14.6L419.8,102.3z M469.1,43.1l-9.7-9.7l0,0l-19.5-19.5l0,0l-9.7-9.7c-2.8-2.8-6.9-2.8-9.7,0s-2.8,6.9,0,9.7l4.2,4.9
				l-24.4,24.4l-14.6-14.6c-2.8-2.8-6.9-2.8-9.7,0L356.3,48c-2.8,2.8-2.8,6.9,0,9.7l-21.5,21.5l15.3,14.6L370.9,73l9.7,9.7
				l-19.5,19.5l9.7,9.7l19.5-19.5l9.7,9.7L380,122.5l15.3,14.6l20.2-20.2l0,0c1.4,1.4,2.8,2,4.9,2c2,0,3.5-0.7,4.9-2l19.5-19.5
				c2.8-2.8,2.8-6.9,0-9.7L430.1,73l24.4-24.4l4.9,4.9c1.4,1.4,3.5,2,4.9,2c2,0,3.5-0.7,4.9-2C471.9,50.7,471.9,46,469.1,43.1
				L469.1,43.1z"/>
			<path class="st2" d="M143.5,350.7c-2.8-2.8-6.9-2.8-9.7,0l-13.9,13.9c-4.9,4.9-7.7,11.8-7.7,18.8c0,7,2.8,13.9,7.7,18.8
				c4.9,4.9,11.8,7.7,18.8,7.7s13.9-2.8,18.8-7.7c10.4-10.4,10.4-27.1,0-37.5L143.5,350.7z"/>
			<path class="st1" d="M207.6,237.2c-3.5,3.5-5.6,8.4-5.6,13.3c0,2.8,0.7,5.6,2,8.4l-69.6,69.6c-2.8,2.8-2.8,6.9,0,9.7
				c1.4,1.4,3.5,2,4.9,2c2,0,3.5-0.7,4.9-2l69.6-68.9c2.8,2,6.2,2.8,9.7,2.8c4.9,0,9.7-2,13.3-5.6l15.3-15.3l-29.2-29.9L207.6,237.2
				z"/>
			<polygon class="st1" points="261.1,153.1 379.4,153.1 385,146.7 325.1,89 			"/>
			<path class="st1" d="M247.2,197.5l-13.9,13.9l29.2,29.9l15.3-15.3c3.5,0.7,6.2,1.4,9.7,1.4c11.1,0,21.5-4.2,29.2-12.5l48.7-48.7
				H250.8C245.1,176,244.4,187.1,247.2,197.5"/>
		</g>
	</g>
</g>
<path class="st2" d="M469.2,43.1l-9.7-9.7L440,13.9l-9.7-9.7c-2.8-2.8-6.9-2.8-9.7,0s-2.8,6.9,0,9.7l4.2,4.9l-24.4,24.4L430.2,73
	l24.4-24.4l4.9,4.9c1.4,1.4,3.5,2,4.9,2c2,0,3.5-0.7,4.9-2C471.9,50.7,471.9,46,469.2,43.1z"/>
<line class="st3" x1="7.2" y1="374.2" x2="7.2" y2="409.7"/>
<line class="st4" x1="327.3" y1="375" x2="327.3" y2="404.2"/>
<line class="st4" x1="7.2" y1="377.4" x2="7.2" y2="406.6"/>
</svg>
