<?xml version="1.0" encoding="utf-8"?>
<!-- Generator: Adobe Illustrator 24.0.0, SVG Export Plug-In . SVG Version: 6.00 Build 0)  -->
<svg version="1.1" id="Layer_1" xmlns="http://www.w3.org/2000/svg" xmlns:xlink="http://www.w3.org/1999/xlink" x="0px" y="0px"
	 viewBox="0 0 500 500" style="enable-background:new 0 0 500 500;" xml:space="preserve">
<style type="text/css">
	.st0{fill:#FFFFFF;}
	.st1{stroke:#000000;stroke-width:0.75;stroke-miterlimit:10;}
	.st2{fill:#519CCC;}
</style>
<g>
	<path class="st0" d="M113,55.1v241.2h224.5l29,49.3V59.5v-7.2C367.2,52.2,115.1,55.1,113,55.1z"/>
	<g>
		<path class="st1" d="M473.6,294.1c-1.4-2.2-3.6-2.9-5.8-2.9h-65.2v-210c0-4.3-2.9-7.2-7.2-7.2h-21.7V52.2c0-4.3-2.9-7.2-7.2-7.2
			H192.6c0-15.9-13-29-29-29s-29,13-29,29H113c-4.3,0-7.2,2.9-7.2,7.2v239H47.8c-4.3,0-7.2,2.9-7.2,7.2c0,1.4,0,2.2,0.7,3.6
			l79.7,144.9c1.4,2.2,3.6,3.6,6.5,3.6h289.7c2.9,0,5.8-2.2,6.5-5.1l0,0l50.7-144.9C475.1,298.5,475.1,295.6,473.6,294.1z
			 M388.2,88.4V376l-14.5-26.8l0,0V88.4C373.7,88.4,388.2,88.4,388.2,88.4z M163.7,30.5c8,0,14.5,6.5,14.5,14.5h-29
			C149.2,37,155.7,30.5,163.7,30.5z M120.2,59.5h57.9v21.7c0,4.3-2.9,7.2-7.2,7.2s-7.2-2.9-7.2-7.2v-7.2h-14.5v7.2
			c0,12.3,9.4,21.7,21.7,21.7s21.7-9.4,21.7-21.7V59.5h166.6v262.9L344,294.1c-1.4-2.2-3.6-3.6-6.5-3.6H120.2V59.5z M131.8,436.1
			L60.1,305.7h273.1l71.7,130.4H131.8z M415.7,425.2l-13-23.9v-95.6h55L415.7,425.2z"/>
		<path class="st2" d="M431.6,73.9c0-15.9-13-29-29-29h-14.5v14.5h14.5c8,0,14.5,6.5,14.5,14.5v101.4h14.5V73.9z"/>
		<rect x="417.2" y="189.8" class="st2" width="14.5" height="14.5"/>
		<rect x="76.7" y="160.9" class="st2" width="14.5" height="101.4"/>
		<rect x="76.7" y="131.9" class="st2" width="14.5" height="14.5"/>
		<path class="st2" d="M199.9,153.6h21.7v21.7c0,4.3,2.9,7.2,7.2,7.2h29c4.3,0,7.2-2.9,7.2-7.2v-21.7h21.7c4.3,0,7.2-2.9,7.2-7.2
			v-29c0-4.3-2.9-7.2-7.2-7.2h-21.7V88.4c0-4.3-2.9-7.2-7.2-7.2h-29c-4.3,0-7.2,2.9-7.2,7.2v21.7h-21.7c-4.3,0-7.2,2.9-7.2,7.2v29
			C192.6,150,195.5,153.6,199.9,153.6z M207.1,124.6h21.7c4.3,0,7.2-2.9,7.2-7.2V95.7h14.5v21.7c0,4.3,2.9,7.2,7.2,7.2h21.7v14.5
			h-21.7c-4.3,0-7.2,2.9-7.2,7.2v21.7h-14.5v-21.7c0-4.3-2.9-7.2-7.2-7.2h-21.7V124.6z"/>
		<rect x="156.4" y="197.1" class="st2" width="14.5" height="14.5"/>
		<rect x="185.4" y="197.1" class="st2" width="152.1" height="14.5"/>
		<rect x="141.9" y="226" class="st2" width="195.6" height="14.5"/>
		<rect x="141.9" y="255" class="st2" width="166.6" height="14.5"/>
		<rect x="328.8" y="81.2" width="15.2" height="14.5"/>
		<rect x="330.2" y="110.2" width="14.5" height="14.5"/>
	</g>
</g>
</svg>
