<?xml version="1.0" encoding="utf-8"?>
<!-- Generator: Adobe Illustrator 24.0.0, SVG Export Plug-In . SVG Version: 6.00 Build 0)  -->
<svg version="1.1" id="Layer_1" xmlns="http://www.w3.org/2000/svg" xmlns:xlink="http://www.w3.org/1999/xlink" x="0px" y="0px"
	 viewBox="0 0 23 23" style="enable-background:new 0 0 23 23;" xml:space="preserve">
<style type="text/css">
	.st0{fill:#FF7F15;}
	.st1{fill:#0B3556;}
	.st2{fill:#FFFFFF;}
</style>
<g>
	<circle class="st0" cx="11.5" cy="11.5" r="11.5"/>
	<g>
		<path class="st1" d="M18.9,10.4h-1.7V8.3c0-0.9-0.5-1.3-1.3-1.3h-3.6c-0.3,0-0.5-0.1-0.6-0.3l-0.9-0.9c-0.2-0.2-0.4-0.3-0.6-0.3
			H6.2C5.4,5.5,4.9,6,4.9,6.9v9.7c0,0.3,0.2,0.5,0.5,0.5h12.4c0.1,0,0.1,0,0.2-0.1l2.1-5.5C20.2,10.8,19.8,10.4,18.9,10.4z"/>
		<path class="st2" d="M18.9,10.4h-1.7v0h-0.7v0l0,0H9.6c-0.7,0-1.3,0.4-1.5,0.9l-2,5.1l-0.3,0.7h11.9c0.1,0,0.1,0,0.2-0.1l2.1-5.5
			C20.3,10.8,19.8,10.4,18.9,10.4z"/>
	</g>
</g>
</svg>
