<?xml version="1.0" encoding="utf-8"?>
<!-- Generator: Adobe Illustrator 24.0.0, SVG Export Plug-In . SVG Version: 6.00 Build 0)  -->
<svg version="1.1" id="Layer_1" xmlns="http://www.w3.org/2000/svg" xmlns:xlink="http://www.w3.org/1999/xlink" x="0px" y="0px"
	 viewBox="0 0 500 500" style="enable-background:new 0 0 500 500;" xml:space="preserve">
<style type="text/css">
	.st0{fill:#FFFFFF;}
	.st1{fill:#519CCC;}
</style>
<g>
	<polygon class="st0" points="67.4,88.6 67.4,327.7 248.6,383.8 432.5,324.9 432.5,82.2 246.7,145.6 	"/>
	<path d="M249.5,393L56.4,333.2V73l193.1,59.8L442.6,73v260.2L249.5,393z M74.8,319.4l174.7,54.2l174.7-54.2V97.8l-174.7,54.2
		L74.8,97.8V319.4z"/>
	<path d="M479.4,404H19.6V159.4h55.2v160l174.7,54.2l174.7-54.2v-160h55.2V404z M272.5,385.6h187.6V177.8h-18.4v155.4L272.5,385.6z
		 M38,385.6h187.6L56.4,333.2V177.8H38V385.6z"/>
	<rect x="240.3" y="142" width="18.4" height="240.9"/>
	<path class="st1" d="M392,259.6l-109.4,38.6c-2.8,1.8-6.4,0.9-8.3-2.8c-0.9-0.9-0.9-1.8-0.9-3.7l0,0c0-5.5,3.7-10.1,9.2-12
		L392,241.3c2.8-1.8,6.4-0.9,8.3,2.8c0.9,0.9,0.9,1.8,0.9,3.7l0,0C400.3,252.3,397.5,257.8,392,259.6z"/>
	<path class="st1" d="M392,189.8l-46,16.5c-2.8,1.8-6.4,0.9-8.3-2.8c-0.9-0.9-0.9-1.8-0.9-3.7l0,0c0-5.5,3.7-10.1,9.2-12.9l46-16.6
		c2.8-1.8,6.4-0.9,8.3,2.8c0.9,0.9,0.9,1.8,0.9,3.7l0,0C400.3,182.4,397.5,187.9,392,189.8z"/>
	<path class="st1" d="M317.5,215.5l-34.9,12c-2.8,1.8-6.4,0.9-8.3-2.8c-0.9-0.9-0.9-1.8-0.9-3.7l0,0c0-5.5,3.7-10.1,9.2-12l34.9-12
		c2.8-1.8,6.4-0.9,8.3,2.8c0.9,0.9,0.9,1.8,0.9,3.7l0,0C325.8,209.1,322.1,213.7,317.5,215.5z"/>
	<path class="st1" d="M362.6,234.8L312,252.3c-2.8,1.8-6.4,0.9-8.3-2.8c-0.9-0.9-0.9-1.8-0.9-3.7l0,0c0-5.5,3.7-10.1,9.2-12.9
		l50.6-17.5c2.8-1.8,6.4-0.9,8.3,2.8c0.9,0.9,0.9,1.8,0.9,3.7l0,0C370.9,228.4,367.2,233,362.6,234.8z"/>
	<path class="st1" d="M104.2,187.9l109.4,38.6c2.8,1.8,6.4,0.9,8.3-2.8c0.9-0.9,0.9-1.8,0.9-3.7l0,0c0-5.5-3.7-10.1-9.2-12.9
		l-109.4-38.6c-2.8-1.8-6.4-0.9-8.3,2.8c-0.9,0.9-0.9,1.8-0.9,3.7l0,0C95,181.5,98.7,186.1,104.2,187.9z"/>
	<path class="st1" d="M104.2,223.8l46,16.5c2.8,1.8,6.4,0.9,8.3-2.8c0.9-0.9,0.9-1.8,0.9-3.7l0,0c0-5.5-3.7-10.1-9.2-12l-46-16.6
		c-2.8-1.8-6.4-0.9-8.3,2.8c-0.9,0.9-0.9,1.8-0.9,3.7l0,0C95,216.4,98.7,221.9,104.2,223.8z"/>
	<path class="st1" d="M178.7,249.5l34.9,12c2.8,1.8,6.4,0.9,8.3-2.8c0.9-0.9,0.9-1.8,0.9-3.7l0,0c0-5.5-3.7-10.1-9.2-12l-34.9-12
		c-2.8-1.8-6.4-0.9-8.3,2.8c-0.9,0.9-0.9,1.8-0.9,3.7l0,0C169.5,243.1,173.2,247.7,178.7,249.5z"/>
	<path class="st1" d="M133.6,269.8l50.6,17.5c2.8,1.8,6.4,0.9,8.3-2.8c0.9-0.9,0.9-1.8,0.9-3.7l0,0c0-5.5-3.7-10.1-9.2-12
		l-50.6-17.5c-2.8-1.8-6.4-0.9-8.3,2.8c-0.9,0.9-0.9,1.8-0.9,3.7l0,0C124.5,262.4,128.1,267.9,133.6,269.8z"/>
</g>
</svg>
