<?xml version="1.0" encoding="utf-8"?>
<!-- Generator: Adobe Illustrator 24.0.0, SVG Export Plug-In . SVG Version: 6.00 Build 0)  -->
<svg version="1.1" id="Layer_1" xmlns="http://www.w3.org/2000/svg" xmlns:xlink="http://www.w3.org/1999/xlink" x="0px" y="0px"
	 viewBox="0 0 500 500" style="enable-background:new 0 0 500 500;" xml:space="preserve">
<style type="text/css">
	.st0{fill:#FFFFFF;}
	.st1{fill:#519CCC;}
</style>
<g>
	<g>
		<path class="st0" d="M189.6,72.5V403h105.1V72.5H189.6z M263.3,250.8h-39.2V116.4h39.2V250.8z"/>
	</g>
	<g>
		<g>
			<path d="M157.7,70.4H51c-2.1,0-3.7,1.6-3.7,3.7v330.5c0,2.1,1.6,3.7,3.7,3.7h106.7c2.1,0,3.7-1.6,3.7-3.7v-331
				C161.3,72,159.8,70.4,157.7,70.4z M154,400.4H54.6V77.2H154V400.4z"/>
			<path d="M157.7,413.5H51c-5,0-8.9-3.9-8.9-8.9V74.1c0-5,3.9-8.9,8.9-8.9h106.7c4.9,0,8.9,3.8,8.9,8.4v331
				C166.6,409.6,162.7,413.5,157.7,413.5z M59.9,395.2h88.9V82.5H59.9V395.2z"/>
		</g>
		<g>
			<path d="M84.5,255.6h39.7c2.1,0,3.7-1.6,3.7-3.7v-137c0-2.1-1.6-3.7-3.7-3.7H84.5c-2.1,0-3.7,1.6-3.7,3.7v137
				C80.8,254,82.4,255.6,84.5,255.6z M88.1,118.5h32.9v130.2H88.1V118.5z"/>
		</g>
		<g>
			<path d="M104.3,366.4c14.6,0,26.7-12,26.7-26.7c0-14.6-12-26.7-26.7-26.7s-26.7,12-26.7,26.7C77.7,354.4,89.7,366.4,104.3,366.4z
				 M104.3,319.9c11,0,19.9,8.9,19.9,19.9c0,11-8.9,19.9-19.9,19.9s-19.9-8.9-19.9-19.9C84.5,328.8,93.3,319.9,104.3,319.9z"/>
		</g>
		<g>
			<path d="M223.6,255.6h39.7c2.1,0,3.7-1.6,3.7-3.7v-137c0-2.1-1.6-3.7-3.7-3.7h-39.7c-2.1,0-3.7,1.6-3.7,3.7v137
				C219.9,254,221.5,255.6,223.6,255.6z M226.7,118.5h32.4v130.2h-32.4V118.5z"/>
		</g>
		<g>
			<path d="M242.9,313.1c-14.6,0-26.7,12-26.7,26.7c0,14.6,12,26.7,26.7,26.7c14.6,0,26.7-12,26.7-26.7
				C270.1,325.1,258.1,313.1,242.9,313.1z M242.9,359.6c-11,0-19.9-8.9-19.9-19.9c0-11,8.9-19.9,19.9-19.9s19.9,8.9,19.9,19.9
				C262.8,350.7,253.9,359.6,242.9,359.6z"/>
		</g>
		<g>
			<path d="M479.8,383.7l-85.2-319c0-1-1-1.6-1.6-2.1c-1-0.5-1.6-0.5-2.6-0.5l-89.9,24.1V73.6c0-2.1-1.6-3.7-3.7-3.7H190.1
				c-2.1,0-3.7,1.6-3.7,3.7v330.5c0,2.1,1.6,3.7,3.7,3.7h106.7c2.1,0,3.7-1.6,3.7-3.7v-251L370,413c0,1,1,1.6,1.6,2.1
				c0.5,0.5,1,0.5,1.6,0.5s0.5,0,1,0l103-27.7C479.3,387.3,480.3,385.8,479.8,383.7z M193.2,400.4V77.2h99.4v11l-6.3,1.6l0,0l0,0
				l0,0l0,0h-0.5h-0.5l0,0c0,0,0,0-0.5,0.5l0,0l-0.5,0.5l0,0c0,0,0,0.5-0.5,0.5l0,0v0.5l0,0v0.5v0.5l0,0v1l8.4,31.4v274h-98.8
				L193.2,400.4L193.2,400.4z M375.7,407.7L292.1,95.5l5.2-1.6l0,0l90.5-24.1l83.7,312.2L375.7,407.7z"/>
			<path d="M374.9,420.8h-1.7c-0.9,0-3.2,0-5.3-2.1c-0.8-0.6-2.7-2.2-3-4.9l-59.2-221v211.2c0,5-3.9,8.9-8.9,8.9H190.1
				c-5,0-8.9-3.9-8.9-8.9V73.6c0-5,3.9-8.9,8.9-8.9h106.7c5,0,8.9,3.9,8.9,8.9v5.7l84.7-22.5c1.3,0,2.8,0,5,1.1l1.3,1
				c0.8,0.6,2.7,2.2,3.1,4.9l85.1,318.6c1.2,4.9-1.5,9.3-6.4,10.5L374.9,420.8z M191.7,402.5h1.6v-2.1h-1.6V402.5z M298.4,99.1
				l81,302.3l85.6-22.9l-81-302.1L298.4,99.1z M198.5,394.1h88.4V126L278.5,94v-7.8l3.1-0.1l1.5-1.5h2.6l1.7-0.4v-1.7h-88.9V394.1z"
				/>
		</g>
		<g>
			<path d="M368.4,110.7l-38.2,10.5c-1,0-1.6,1-2.1,1.6c-0.5,1-0.5,1.6-0.5,2.6l35.6,132.3c0.5,1.6,2.1,2.6,3.7,2.6c0.5,0,0.5,0,1,0
				l38.2-10.5c1,0,1.6-1,2.1-1.6c0.5-1,0.5-1.6,0.5-2.6l-35.6-132.3C372.1,111.2,370,110.2,368.4,110.7z M368.9,252.4l-33.5-125.5
				l31.4-8.4L400.3,244L368.9,252.4z"/>
		</g>
		<g>
			<path d="M401.4,310.5c-14.1,3.7-23,18.3-18.8,32.9c3.1,11.5,13.6,19.9,26.1,19.9c2.1,0,4.7-0.5,6.8-1c14.1-3.7,23-18.8,18.8-32.9
				c-3.1-11.5-13.6-19.9-26.1-19.9C405.6,309.4,403.5,309.9,401.4,310.5z M427,331.4c2.6,10.5-3.7,21.4-14.1,24.1
				c-1.6,0.5-3.7,0.5-5.2,0.5c-8.9,0-16.7-6.3-18.8-14.6c-2.6-10.5,3.7-21.4,14.1-24.1c1.6-0.5,3.7-0.5,5.2-0.5
				C417.1,316.7,424.9,322.5,427,331.4z"/>
		</g>
		<g>
			<circle class="st1" cx="243.4" cy="339.7" r="27.2"/>
		</g>
	</g>
</g>
</svg>
