<?xml version="1.0" encoding="utf-8"?>
<!-- Generator: Adobe Illustrator 23.0.1, SVG Export Plug-In . SVG Version: 6.00 Build 0)  -->
<svg version="1.1" id="Layer_1" xmlns="http://www.w3.org/2000/svg" xmlns:xlink="http://www.w3.org/1999/xlink" x="0px" y="0px"
	 viewBox="0 0 500 500" style="enable-background:new 0 0 500 500;" xml:space="preserve">
<style type="text/css">
	.st0{fill:#FBCB90;}
	.st1{fill:#FFFFFF;}
	.st2{fill:#010101;stroke:#010101;stroke-width:0.75;stroke-miterlimit:10;}
	.st3{fill:#519CCC;}
	.st4{fill:#010101;}
</style>
<circle class="st0" cx="249.9" cy="253" r="236.5"/>
<g>
	<path class="st1" d="M142.1,124.2v169.6H300l20.4,34.6V127.3v-5.1C320.9,122.2,143.7,124.2,142.1,124.2z"/>
	<g>
		<path class="st2" d="M395.8,292.3c-1-1.5-2.5-2-4.1-2h-45.8V142.6c0-3.1-2-5.1-5.1-5.1h-15.3v-15.3c0-3.1-2-5.1-5.1-5.1H198.2
			c0-11.2-9.2-20.4-20.4-20.4c-11.2,0-20.4,9.2-20.4,20.4h-15.3c-3.1,0-5.1,2-5.1,5.1v168.1H96.3c-3.1,0-5.1,2-5.1,5.1
			c0,1,0,1.5,0.5,2.5l56,101.9c1,1.5,2.5,2.5,4.6,2.5h203.8c2,0,4.1-1.5,4.6-3.6l0,0l35.7-101.9
			C396.8,295.4,396.8,293.4,395.8,292.3z M335.7,147.7v202.2L325.5,331l0,0V147.7C325.5,147.7,335.7,147.7,335.7,147.7z
			 M177.8,106.9c5.6,0,10.2,4.6,10.2,10.2h-20.4C167.6,111.5,172.2,106.9,177.8,106.9z M147.2,127.3H188v15.3c0,3.1-2,5.1-5.1,5.1
			s-5.1-2-5.1-5.1v-5.1h-10.2v5.1c0,8.7,6.6,15.3,15.3,15.3c8.7,0,15.3-6.6,15.3-15.3v-15.3h117.2v184.9l-10.7-19.9
			c-1-1.5-2.5-2.5-4.6-2.5H147.2V127.3z M155.4,392.2l-50.4-91.7h192l50.4,91.7H155.4z M355.1,384.5l-9.2-16.8v-67.2h38.7
			L355.1,384.5z"/>
		<path class="st3" d="M366.3,137.5c0-11.2-9.2-20.4-20.4-20.4h-10.2v10.2h10.2c5.6,0,10.2,4.6,10.2,10.2v71.3h10.2V137.5z"/>
		<rect x="356.1" y="219" class="st3" width="10.2" height="10.2"/>
		<rect x="116.7" y="198.6" class="st3" width="10.2" height="71.3"/>
		<rect x="116.7" y="178.2" class="st3" width="10.2" height="10.2"/>
		<path class="st3" d="M203.3,193.5h15.3v15.3c0,3.1,2,5.1,5.1,5.1H244c3.1,0,5.1-2,5.1-5.1v-15.3h15.3c3.1,0,5.1-2,5.1-5.1V168
			c0-3.1-2-5.1-5.1-5.1h-15.3v-15.3c0-3.1-2-5.1-5.1-5.1h-20.4c-3.1,0-5.1,2-5.1,5.1v15.3h-15.3c-3.1,0-5.1,2-5.1,5.1v20.4
			C198.2,191,200.2,193.5,203.3,193.5z M208.4,173.1h15.3c3.1,0,5.1-2,5.1-5.1v-15.3h10.2V168c0,3.1,2,5.1,5.1,5.1h15.3v10.2H244
			c-3.1,0-5.1,2-5.1,5.1v15.3h-10.2v-15.3c0-3.1-2-5.1-5.1-5.1h-15.3V173.1z"/>
		<rect x="172.7" y="224.1" class="st3" width="10.2" height="10.2"/>
		<rect x="193.1" y="224.1" class="st3" width="107" height="10.2"/>
		<rect x="162.5" y="244.4" class="st3" width="137.5" height="10.2"/>
		<rect x="162.5" y="264.8" class="st3" width="117.2" height="10.2"/>
		<rect x="293.9" y="142.6" class="st4" width="10.7" height="10.2"/>
		<rect x="295" y="162.9" class="st4" width="10.2" height="10.2"/>
	</g>
</g>
</svg>
