<?xml version="1.0" encoding="utf-8"?>
<!-- Generator: Adobe Illustrator 24.0.0, SVG Export Plug-In . SVG Version: 6.00 Build 0)  -->
<svg version="1.1" id="Layer_1" xmlns="http://www.w3.org/2000/svg" xmlns:xlink="http://www.w3.org/1999/xlink" x="0px" y="0px"
	 viewBox="0 0 500 500" style="enable-background:new 0 0 500 500;" xml:space="preserve">
<style type="text/css">
	.st0{fill:#FFFFFF;}
	.st1{fill:#519CCC;}
</style>
<g>
	<rect x="94.8" y="78.8" class="st0" width="52.2" height="146.3"/>
	<rect x="222.5" y="79.8" class="st0" width="53.1" height="104.4"/>
	<rect x="350.2" y="77" class="st0" width="54.1" height="132.3"/>
	<path d="M451.7,385.5V159c0-5.6-3.7-9.3-9.3-9.3h-28V85.4h5.6c5.6,0,9.3-3.7,9.3-9.3c0-5.6-3.7-9.3-9.3-9.3h-84.8
		c-5.6,0-9.3,3.7-9.3,9.3s3.7,9.3,9.3,9.3h5.6v64.3h-54.1V85.4h5.6c5.6,0,9.3-3.7,9.3-9.3c0-5.6-3.7-9.3-9.3-9.3h-84.8
		c-5.6,0-9.3,3.7-9.3,9.3s3.7,9.3,9.3,9.3h4.7v64.3h-54.1V85.4h5.6c5.6,0,9.3-3.7,9.3-9.3c0-5.6-3.7-9.3-9.3-9.3H78.9
		c-5.6,0-9.3,3.7-9.3,9.3s3.7,9.3,9.3,9.3h5.6v64.3h-28c-5.6,0-9.3,3.7-9.3,9.3v226.5H25.8v45.7h447.4v-45.7
		C473.2,385.5,451.7,385.5,451.7,385.5z M395.8,85.4v124.9h-36.3V85.4H395.8z M230.9,85.4h37.3v106.3h-37.3V85.4z M103.2,85.4h36.3
		v143.5h-36.3V85.4z M65.9,168.3h18.6v125.8c0,20.5,16.8,37.3,37.3,37.3s37.3-16.8,37.3-37.3V168.3h53.1v125.8
		c0,20.5,16.8,37.3,37.3,37.3s37.3-16.8,37.3-37.3V168.3h54.1v125.8c0,20.5,16.8,37.3,37.3,37.3s37.3-16.8,37.3-37.3V168.3h18.6
		v217.2H65.9V168.3z"/>
	<path class="st1" d="M103.2,225.2v65.2c0,9.3,8.4,17.7,17.7,17.7h0.9c9.3,0,17.7-8.4,17.7-17.7v-65.2L103.2,225.2L103.2,225.2z"/>
	<path class="st1" d="M359.5,209.3v80.2c0,9.3,8.4,17.7,17.7,17.7h0.9c9.3,0,17.7-8.4,17.7-17.7v-80.2H359.5z"/>
	<path class="st1" d="M230.9,185.1v104.4c0,10.3,8.4,17.7,17.7,17.7h0.9c10.3,0,17.7-8.4,17.7-17.7V185.1H230.9z"/>
</g>
</svg>
