<?xml version="1.0" encoding="utf-8"?>
<!-- Generator: Adobe Illustrator 24.0.0, SVG Export Plug-In . SVG Version: 6.00 Build 0)  -->
<svg version="1.1" id="Layer_1" xmlns="http://www.w3.org/2000/svg" xmlns:xlink="http://www.w3.org/1999/xlink" x="0px" y="0px"
	 viewBox="0 0 500 500" style="enable-background:new 0 0 500 500;" xml:space="preserve">
<style type="text/css">
	.st0{fill:#39C0F0;}
	.st1{fill:#FFFFFF;}
	.st2{fill:#519CCC;}
</style>
<g>
	<circle class="st0" cx="250.5" cy="249.8" r="236.2"/>
	<g>
		<polygon class="st1" points="117,136.9 117,312.2 249.8,353.3 384.7,310.1 384.7,132.2 248.5,178.7 		"/>
		<path d="M250.5,360l-141.6-43.8V125.4l141.6,43.8l141.6-43.8v190.8L250.5,360z M122.4,306.1l128.1,39.8l128.1-39.8V143.6
			l-128.1,39.8l-128.1-39.8V306.1z"/>
		<path d="M419,368.1H82V188.8h40.4v117.3l128.1,39.8l128.1-39.8V188.8H419V368.1z M267.4,354.6h137.5V202.3h-13.5v113.9
			L267.4,354.6z M95.4,354.6H233l-124-38.4V202.3H95.4V354.6z"/>
		<rect x="243.8" y="176" width="13.5" height="176.6"/>
		<path class="st2" d="M355,262.3l-80.2,28.3c-2,1.3-4.7,0.7-6.1-2c-0.7-0.7-0.7-1.3-0.7-2.7l0,0c0-4,2.7-7.4,6.7-8.8l80.2-28.3
			c2-1.3,4.7-0.7,6.1,2c0.7,0.7,0.7,1.3,0.7,2.7l0,0C361.1,256.9,359,260.9,355,262.3z"/>
		<path class="st2" d="M355,211l-33.7,12.1c-2,1.3-4.7,0.7-6.1-2c-0.7-0.7-0.7-1.3-0.7-2.7l0,0c0-4,2.7-7.4,6.7-9.4l33.7-12.1
			c2-1.3,4.7-0.7,6.1,2c0.7,0.7,0.7,1.3,0.7,2.7l0,0C361.1,205.6,359,209.7,355,211z"/>
		<path class="st2" d="M300.4,229.9l-25.6,8.8c-2,1.3-4.7,0.7-6.1-2c-0.7-0.7-0.7-1.3-0.7-2.7l0,0c0-4,2.7-7.4,6.7-8.8l25.6-8.8
			c2-1.3,4.7-0.7,6.1,2c0.7,0.7,0.7,1.3,0.7,2.7l0,0C306.5,225.2,303.8,228.6,300.4,229.9z"/>
		<path class="st2" d="M333.4,244.1l-37.1,12.8c-2,1.3-4.7,0.7-6.1-2c-0.7-0.7-0.7-1.3-0.7-2.7l0,0c0-4,2.7-7.4,6.7-9.4l37.1-12.8
			c2-1.3,4.7-0.7,6.1,2c0.7,0.7,0.7,1.3,0.7,2.7l0,0C339.5,239.3,336.8,242.7,333.4,244.1z"/>
		<path class="st2" d="M144,209.7l80.2,28.3c2,1.3,4.7,0.7,6.1-2c0.7-0.7,0.7-1.3,0.7-2.7l0,0c0-4-2.7-7.4-6.7-9.4L144,195.5
			c-2-1.3-4.7-0.7-6.1,2c-0.7,0.7-0.7,1.3-0.7,2.7l0,0C137.2,205,139.9,208.3,144,209.7z"/>
		<path class="st2" d="M144,236l33.7,12.1c2,1.3,4.7,0.7,6.1-2c0.7-0.7,0.7-1.3,0.7-2.7l0,0c0-4-2.7-7.4-6.7-8.8L144,222.5
			c-2-1.3-4.7-0.7-6.1,2c-0.7,0.7-0.7,1.3-0.7,2.7l0,0C137.2,230.6,139.9,234.6,144,236z"/>
		<path class="st2" d="M198.6,254.9l25.6,8.8c2,1.3,4.7,0.7,6.1-2c0.7-0.7,0.7-1.3,0.7-2.7l0,0c0-4-2.7-7.4-6.7-8.8l-25.6-8.8
			c-2-1.3-4.7-0.7-6.1,2c-0.7,0.7-0.7,1.3-0.7,2.7l0,0C191.8,250.1,194.5,253.5,198.6,254.9z"/>
		<path class="st2" d="M165.6,269.7l37.1,12.8c2,1.3,4.7,0.7,6.1-2c0.7-0.7,0.7-1.3,0.7-2.7l0,0c0-4-2.7-7.4-6.7-8.8l-37.1-12.8
			c-2-1.3-4.7-0.7-6.1,2c-0.7,0.7-0.7,1.3-0.7,2.7l0,0C158.8,264.3,161.5,268.3,165.6,269.7z"/>
	</g>
</g>
</svg>
