<?xml version="1.0" encoding="utf-8"?>
<!-- Generator: Adobe Illustrator 24.0.0, SVG Export Plug-In . SVG Version: 6.00 Build 0)  -->
<svg version="1.1" id="Layer_1" xmlns="http://www.w3.org/2000/svg" xmlns:xlink="http://www.w3.org/1999/xlink" x="0px" y="0px"
	 viewBox="0 0 500 500" style="enable-background:new 0 0 500 500;" xml:space="preserve">
<style type="text/css">
	.st0{fill:#4BC41E;}
	.st1{fill:#FFFFFF;}
	.st2{fill:#39C0F0;}
	.st3{fill:#231F20;}
	.st4{stroke:#000000;stroke-width:0.5;stroke-miterlimit:10;}
</style>
<g>
	<circle class="st0" cx="250.5" cy="250.3" r="235.7"/>
	<g>
		<polygon class="st1" points="195.7,123.6 158.6,123.6 158.6,372.2 341.4,372.2 341.4,125.6 303.2,125.6 305.8,140.4 195.2,140.4 
			200.8,121 		"/>
		<g>
			<path class="st2" d="M311.4,256H188.1c-3.1,0-5.1,2-5.1,5.1c0,3.1,2,5.1,5.1,5.1h123.3c3.1,0,5.1-2,5.1-5.1
				C316.5,258.1,314.4,256,311.4,256z"/>
			<path class="st2" d="M183,179.6c0,3.1,2,5.1,5.1,5.1h123.3c3.1,0,5.1-2,5.1-5.1s-2-5.1-5.1-5.1H188.1
				C185,174.5,183,176.5,183,179.6z"/>
			<path class="st2" d="M311.4,296.8h-64.2c-3.1,0-5.1,2-5.1,5.1c0,3.1,2,5.1,5.1,5.1h64.2c3.1,0,5.1-2,5.1-5.1
				C316.5,298.8,314.4,296.8,311.4,296.8z"/>
			<path class="st2" d="M311.4,215.3h-64.2c-3.1,0-5.1,2-5.1,5.1s2,5.1,5.1,5.1h64.2c3.1,0,5.1-2,5.1-5.1
				C316.5,217.3,314.4,215.3,311.4,215.3z"/>
			<path class="st2" d="M311.4,337.5H188.1c-3.1,0-5.1,2-5.1,5.1c0,3.1,2,5.1,5.1,5.1h123.3c3.1,0,5.1-2,5.1-5.1
				C316.5,339.6,314.4,337.5,311.4,337.5z"/>
			<path class="st3" d="M196.8,237.2c1,1,2.5,1.5,3.6,1.5s2.5-0.5,3.6-1.5l26.5-26.5c2-2,2-5.1,0-7.1c-2-2-5.1-2-7.1,0l-22.9,22.9
				l-8.7-8.7c-2-2-5.1-2-7.1,0s-2,5.1,0,7.1L196.8,237.2z"/>
			<path class="st3" d="M196.8,318.7c1,1,2.5,1.5,3.6,1.5s2.5-0.5,3.6-1.5l26.5-26.5c2-2,2-5.1,0-7.1s-5.1-2-7.1,0L200.3,308
				l-8.7-8.7c-2-2-5.1-2-7.1,0s-2,5.1,0,7.1L196.8,318.7z"/>
		</g>
		<path class="st4" d="M351.1,94.5h-52.5l-3.1-11.2c-0.5-2-2.5-3.6-5.1-3.6H210c-2,0-4.1,1.5-5.1,3.6l-3.1,11.2h-52.5
			c-10.7,0-19.4,8.7-19.4,19.4v267.4c0,10.7,8.7,19.4,19.4,19.4h202.2c10.7,0,19.4-8.7,19.4-19.4V113.9
			C371,103.2,361.8,94.5,351.1,94.5z M190.1,145c1,1,2.5,2,4.1,2h112.1c1.5,0,3.1-0.5,4.1-2c1-1,1-3.1,1-4.6l-3.6-12.2h29v238.4
			H163.6V128.7h28.5l-3.1,12.2C188.6,142.4,189.1,143.9,190.1,145z M214.1,89.9h72.8l13.2,47.4h-99.3L214.1,89.9z M360.8,381.3
			c0,5.1-4.1,9.2-9.2,9.2H149.4c-5.1,0-9.2-4.1-9.2-9.2V113.9c0-5.1,4.1-9.2,9.2-9.2h49.9l-4.1,13.8h-36.7c-3.1,0-5.1,2-5.1,5.1
			v248.6c0,3.1,2,5.1,5.1,5.1h183.4c3.1,0,5.1-2,5.1-5.1V123.6c0-3.1-2-5.1-5.1-5.1h-36.7l-4.1-13.8h49.9c5.1,0,9.2,4.1,9.2,9.2
			C360.8,113.9,360.8,381.3,360.8,381.3z"/>
	</g>
</g>
</svg>
