<?xml version="1.0" encoding="utf-8"?>
<!-- Generator: Adobe Illustrator 24.0.0, SVG Export Plug-In . SVG Version: 6.00 Build 0)  -->
<svg version="1.1" id="Layer_1" xmlns="http://www.w3.org/2000/svg" xmlns:xlink="http://www.w3.org/1999/xlink" x="0px" y="0px"
	 viewBox="0 0 63.3 63.6" style="enable-background:new 0 0 63.3 63.6;" xml:space="preserve">
<style type="text/css">
	.st0{fill:#FFFFFF;}
</style>
<path class="st0" d="M15.2,49.6c-1.6,0-1.6,0-1.6-1.5v-3c0-1.5,0-1.5,1.6-1.5h22.9c1.6,0,1.6,0,1.6,1.5v3c0,1.5,0,1.5-1.6,1.5H15.2z
	 M15.2,34.6c-1.6,0-1.6,0-1.6-1.5v-3c0-1.5,0-1.5,1.6-1.5H48c1.6,0,1.6,0,1.6,1.5v3c0,1.5,0,1.5-1.6,1.5H15.2z M15.2,19.6
	c-1.6,0-1.6,0-1.6-1.5v-3c0-1.5,0-1.5,1.6-1.5H48c1.6,0,1.6,0,1.6,1.5v3c0,1.5,0,1.5-1.6,1.5H15.2z M7.8,61.6h47.5
	c3.8,0,6.2-1.2,6.2-6.2V7.8c0-3.8-2.5-6.2-6.2-6.2H7.8c-5,0-6.2,2.5-6.2,6.2v47.5C1.6,60.3,2.8,61.6,7.8,61.6z"/>
</svg>
