<svg id="Layer_1" data-name="Layer 1" xmlns="http://www.w3.org/2000/svg" viewBox="0 0 63.49 43.35"><defs><style>.cls-1{fill:#3dc0ef;}.cls-2{fill:#fff;}</style></defs><title>Model-Buttons</title><rect class="cls-1" x="0.3" y="0.2" width="62.91" height="42.96" rx="9.36"/><path class="cls-2" d="M47.21,34.49,41.73,29a13.42,13.42,0,1,0-3.42,3.48L43.79,38a1.61,1.61,0,0,0,2.29,0l1.16-1.16A1.66,1.66,0,0,0,47.21,34.49ZM23.72,28.24a9.74,9.74,0,1,1,13.78,0A9.75,9.75,0,0,1,23.72,28.24Z"/><path class="cls-2" d="M31.63,15.48V20h4.3v2.3h-4.3v4.54h-2.4V22.27h-4.3V20h4.3V15.48Z"/></svg>