<svg id="Layer_1" data-name="Layer 1" xmlns="http://www.w3.org/2000/svg" viewBox="0 0 63.42 43.35"><defs><style>.cls-1{fill:#3dc0ef;}.cls-2{fill:#fff;}</style></defs><title>Model-Buttons</title><rect class="cls-1" x="0.22" y="0.19" width="62.91" height="42.96" rx="9.36"/><circle class="cls-2" cx="31.67" cy="21.66" r="3.61"/><path class="cls-2" d="M26.33,9.76a1.47,1.47,0,0,0-1.48,1.47v1.48L19.29,7.18a1.48,1.48,0,0,0-2.1,2.1l5.56,5.56H21.27a1.48,1.48,0,0,0-1.48,1.48,1.39,1.39,0,0,0,.44,1,1.45,1.45,0,0,0,1,.44h5.06a1.48,1.48,0,0,0,1.48-1.48V11.26A1.5,1.5,0,0,0,26.33,9.76Z"/><path class="cls-2" d="M40.62,28.51H42.1A1.48,1.48,0,0,0,43.58,27a1.38,1.38,0,0,0-.44-1,1.41,1.41,0,0,0-1-.44H37A1.47,1.47,0,0,0,35.57,27v5.06a1.48,1.48,0,1,0,3,0V30.62l5.56,5.56a1.49,1.49,0,0,0,2.1-2.11Z"/><path class="cls-2" d="M37,17.8h5.06a1.48,1.48,0,0,0,0-3H40.59l5.56-5.56a1.48,1.48,0,0,0-2.1-2.1l-5.53,5.53V11.23A1.47,1.47,0,0,0,37,9.76a1.33,1.33,0,0,0-1,.44,1.38,1.38,0,0,0-.44,1v5.09A1.42,1.42,0,0,0,37,17.8Z"/><path class="cls-2" d="M26.33,25.53H21.27a1.48,1.48,0,1,0,0,2.95h1.48L17.19,34a1.49,1.49,0,0,0,2.1,2.11l5.56-5.57v1.48a1.48,1.48,0,0,0,1.48,1.48,1.4,1.4,0,0,0,1-.44,1.44,1.44,0,0,0,.44-1V27A1.47,1.47,0,0,0,26.33,25.53Z"/></svg>