<?xml version="1.0" encoding="utf-8"?>
<!-- Generator: Adobe Illustrator 24.0.0, SVG Export Plug-In . SVG Version: 6.00 Build 0)  -->
<svg version="1.1" id="Layer_1" xmlns="http://www.w3.org/2000/svg" xmlns:xlink="http://www.w3.org/1999/xlink" x="0px" y="0px"
	 viewBox="0 0 379.3 56.9" style="enable-background:new 0 0 379.3 56.9;" xml:space="preserve">
<style type="text/css">
	.st0{fill:#FFFFFF;}
</style>
<g>
	<path class="st0" d="M3.9,4.2h5.2l10.2,16.4h0.1V4.2h3.9v21.9h-5L7.9,9.2l0,0v17h-4V4.2z"/>
	<path class="st0" d="M38.1,24.3L38.1,24.3c-0.5,0.7-1.1,1.2-1.9,1.6c-0.8,0.4-1.8,0.6-2.8,0.6c-0.6,0-1.2-0.1-1.9-0.2
		c-0.7-0.2-1.3-0.4-1.8-0.8s-1-0.8-1.4-1.4s-0.5-1.3-0.5-2.2c0-1.1,0.3-2,0.9-2.7s1.4-1.2,2.4-1.5c1-0.4,2.1-0.6,3.3-0.7
		s2.4-0.2,3.5-0.2v-0.4c0-0.9-0.3-1.6-1-2.1s-1.5-0.7-2.4-0.7c-0.8,0-1.5,0.2-2.3,0.5c-0.7,0.3-1.3,0.7-1.8,1.2L28.5,13
		c0.8-0.8,1.8-1.4,2.9-1.8c1.1-0.4,2.2-0.6,3.4-0.6c1.3,0,2.4,0.2,3.3,0.6s1.5,0.9,2,1.5s0.8,1.3,1,2s0.3,1.5,0.3,2.2V26h-3.5v-1.7
		H38.1z M38,19.4h-0.8c-0.6,0-1.2,0-1.9,0.1s-1.3,0.2-1.8,0.3c-0.6,0.2-1,0.4-1.4,0.7c-0.4,0.3-0.6,0.8-0.6,1.3
		c0,0.4,0.1,0.6,0.2,0.9c0.2,0.2,0.4,0.4,0.6,0.6c0.2,0.1,0.5,0.2,0.8,0.3c0.3,0.1,0.6,0.1,0.9,0.1c1.3,0,2.3-0.3,2.9-1
		c0.7-0.7,1-1.6,1-2.8L38,19.4L38,19.4z"/>
	<path class="st0" d="M44.6,14.3v-3h2.6V7h3.7v4.3h3.7v3h-3.7v6.9c0,0.7,0.1,1.2,0.4,1.6c0.2,0.4,0.8,0.7,1.6,0.7
		c0.2,0,0.5,0,0.8-0.1s0.5-0.1,0.8-0.2l0.1,2.9c-0.3,0.1-0.7,0.2-1.2,0.3c-0.5,0.1-0.9,0.1-1.3,0.1c-1,0-1.8-0.1-2.4-0.4
		c-0.6-0.3-1.1-0.7-1.5-1.1c-0.4-0.5-0.6-1-0.7-1.7c-0.1-0.6-0.2-1.3-0.2-2v-6.9L44.6,14.3L44.6,14.3z"/>
	<path class="st0" d="M57.6,6.2c0-0.6,0.2-1.1,0.7-1.6C58.7,4.2,59.3,4,60,4s1.3,0.2,1.7,0.6c0.5,0.4,0.7,1,0.7,1.6
		s-0.2,1.2-0.7,1.6s-1,0.6-1.7,0.6s-1.2-0.2-1.7-0.7C57.8,7.3,57.6,6.8,57.6,6.2z M58.2,11.3h3.7v14.9h-3.7V11.3z"/>
	<path class="st0" d="M66.2,18.7c0-1.2,0.2-2.2,0.6-3.2s1-1.8,1.7-2.5s1.6-1.2,2.6-1.6s2-0.6,3.2-0.6s2.2,0.2,3.2,0.6
		s1.8,0.9,2.6,1.6c0.7,0.7,1.3,1.5,1.7,2.5s0.6,2,0.6,3.2s-0.2,2.3-0.6,3.2c-0.4,1-1,1.8-1.7,2.5s-1.6,1.2-2.6,1.6s-2,0.6-3.2,0.6
		s-2.2-0.2-3.2-0.6s-1.8-0.9-2.6-1.6c-0.7-0.7-1.3-1.5-1.7-2.5C66.4,20.9,66.2,19.8,66.2,18.7z M70,18.7c0,0.6,0.1,1.2,0.3,1.7
		c0.2,0.6,0.4,1.1,0.8,1.6s0.8,0.8,1.3,1.1c0.5,0.3,1.2,0.4,1.9,0.4s1.4-0.1,1.9-0.4s1-0.7,1.3-1.1s0.6-1,0.8-1.6
		c0.2-0.6,0.3-1.2,0.3-1.7s-0.1-1.2-0.3-1.7c-0.2-0.6-0.4-1.1-0.8-1.5s-0.8-0.8-1.3-1.1S75,14,74.3,14s-1.4,0.1-1.9,0.4
		c-0.5,0.3-1,0.6-1.3,1.1c-0.4,0.5-0.6,1-0.8,1.5S70,18.1,70,18.7z"/>
	<path class="st0" d="M86.7,11.3h3.5v2.4h0.1c0.3-0.7,0.9-1.4,1.7-2c0.8-0.6,1.8-0.9,2.9-0.9c1,0,1.8,0.2,2.5,0.5s1.3,0.8,1.7,1.3
		s0.8,1.2,1,1.9s0.3,1.5,0.3,2.2V26h-3.7v-8.2c0-0.4,0-0.9-0.1-1.4s-0.2-0.9-0.4-1.3c-0.2-0.4-0.5-0.7-0.9-0.9s-0.8-0.4-1.4-0.4
		s-1.1,0.1-1.5,0.4c-0.4,0.2-0.8,0.5-1.1,0.9s-0.5,0.8-0.6,1.3s-0.2,1-0.2,1.5v8.2h-3.7V11.3H86.7z"/>
	<path class="st0" d="M114.8,24.3L114.8,24.3c-0.5,0.7-1.1,1.2-1.9,1.6s-1.8,0.6-2.8,0.6c-0.6,0-1.2-0.1-1.9-0.2
		c-0.7-0.2-1.3-0.4-1.8-0.8s-1-0.8-1.4-1.4s-0.5-1.3-0.5-2.2c0-1.1,0.3-2,0.9-2.7s1.4-1.2,2.4-1.5c1-0.4,2.1-0.6,3.3-0.7
		c1.2-0.1,2.4-0.2,3.5-0.2v-0.4c0-0.9-0.3-1.6-1-2.1s-1.5-0.7-2.4-0.7c-0.8,0-1.5,0.2-2.3,0.5c-0.7,0.3-1.3,0.7-1.8,1.2l-1.9-2.3
		c0.8-0.8,1.8-1.4,2.9-1.8c1.1-0.4,2.2-0.6,3.4-0.6c1.3,0,2.4,0.2,3.3,0.6s1.5,0.9,2,1.5s0.8,1.3,1,2s0.3,1.5,0.3,2.2V26h-3.5v-1.7
		H114.8z M114.7,19.4h-0.8c-0.6,0-1.2,0-1.9,0.1c-0.7,0.1-1.3,0.2-1.8,0.3c-0.6,0.2-1,0.4-1.4,0.7c-0.4,0.3-0.6,0.8-0.6,1.3
		c0,0.4,0.1,0.6,0.2,0.9c0.2,0.2,0.4,0.4,0.6,0.6c0.2,0.1,0.5,0.2,0.8,0.3c0.3,0.1,0.6,0.1,0.9,0.1c1.3,0,2.3-0.3,2.9-1
		c0.7-0.7,1-1.6,1-2.8v-0.5H114.7z"/>
	<path class="st0" d="M123.4,2.7h3.7v23.4h-3.7V2.7z"/>
	<path class="st0" d="M157.3,9.4C156.7,8.6,156,8,155,7.7c-0.9-0.4-1.8-0.5-2.7-0.5c-1.1,0-2.2,0.2-3.1,0.6s-1.7,1-2.4,1.7
		c-0.7,0.7-1.2,1.6-1.5,2.5c-0.4,1-0.5,2-0.5,3.2s0.2,2.3,0.5,3.3c0.4,1,0.9,1.8,1.5,2.6c0.7,0.7,1.4,1.3,2.3,1.7
		c0.9,0.4,1.9,0.6,3.1,0.6c1.2,0,2.2-0.2,3.1-0.7c0.9-0.5,1.6-1.1,2.2-1.8l3.1,2.2c-1,1.2-2.2,2.2-3.6,2.8c-1.4,0.7-3,1-4.9,1
		c-1.7,0-3.3-0.3-4.7-0.9s-2.7-1.4-3.7-2.4s-1.8-2.2-2.4-3.7c-0.6-1.4-0.9-3-0.9-4.7c0-1.8,0.3-3.3,0.9-4.8s1.4-2.6,2.5-3.6
		s2.3-1.8,3.8-2.3c1.4-0.5,3-0.8,4.7-0.8c0.7,0,1.4,0.1,2.2,0.2c0.8,0.1,1.5,0.3,2.2,0.6c0.7,0.3,1.4,0.6,2,1s1.1,0.9,1.6,1.5
		L157.3,9.4z"/>
	<path class="st0" d="M173.6,24.3L173.6,24.3c-0.5,0.7-1.1,1.2-1.9,1.6c-0.8,0.4-1.8,0.6-2.8,0.6c-0.6,0-1.2-0.1-1.9-0.2
		c-0.7-0.2-1.3-0.4-1.8-0.8s-1-0.8-1.4-1.4s-0.5-1.3-0.5-2.2c0-1.1,0.3-2,0.9-2.7c0.6-0.7,1.4-1.2,2.4-1.5c1-0.4,2.1-0.6,3.3-0.7
		s2.4-0.2,3.5-0.2v-0.4c0-0.9-0.3-1.6-1-2.1s-1.5-0.7-2.4-0.7c-0.8,0-1.5,0.2-2.3,0.5c-0.7,0.3-1.3,0.7-1.8,1.2L164,13
		c0.8-0.8,1.8-1.4,2.9-1.8c1.1-0.4,2.2-0.6,3.4-0.6c1.3,0,2.4,0.2,3.3,0.6s1.5,0.9,2,1.5s0.8,1.3,1,2s0.3,1.5,0.3,2.2V26h-3.5v-1.7
		H173.6z M173.6,19.4h-0.8c-0.6,0-1.2,0-1.9,0.1s-1.3,0.2-1.8,0.3c-0.6,0.2-1,0.4-1.4,0.7c-0.4,0.3-0.6,0.8-0.6,1.3
		c0,0.4,0.1,0.6,0.2,0.9c0.2,0.2,0.4,0.4,0.6,0.6c0.2,0.1,0.5,0.2,0.8,0.3c0.3,0.1,0.6,0.1,0.9,0.1c1.3,0,2.3-0.3,2.9-1
		c0.7-0.7,1-1.6,1-2.8v-0.5H173.6z"/>
	<path class="st0" d="M182.2,11.3h3.5v2.4h0.1c0.3-0.7,0.9-1.4,1.7-2s1.8-0.9,2.9-0.9c1,0,1.8,0.2,2.5,0.5s1.3,0.8,1.7,1.3
		s0.8,1.2,1,1.9s0.3,1.5,0.3,2.2V26h-3.7v-8.2c0-0.4,0-0.9-0.1-1.4s-0.2-0.9-0.4-1.3c-0.2-0.4-0.5-0.7-0.9-0.9s-0.8-0.4-1.4-0.4
		s-1.1,0.1-1.5,0.4c-0.4,0.2-0.8,0.5-1.1,0.9s-0.5,0.8-0.6,1.3s-0.2,1-0.2,1.5v8.2h-3.7V11.3H182.2z"/>
	<path class="st0" d="M211.3,15.4c-0.3-0.4-0.7-0.8-1.3-1c-0.6-0.3-1.2-0.4-1.8-0.4c-0.7,0-1.3,0.1-1.8,0.4
		c-0.5,0.3-0.9,0.6-1.3,1.1c-0.3,0.5-0.6,1-0.8,1.5c-0.2,0.6-0.2,1.1-0.2,1.7s0.1,1.2,0.3,1.7c0.2,0.6,0.4,1.1,0.8,1.5
		c0.4,0.5,0.8,0.8,1.3,1.1c0.5,0.3,1.1,0.4,1.8,0.4c0.6,0,1.2-0.1,1.7-0.3c0.6-0.2,1-0.6,1.4-1l2.3,2.4c-0.6,0.7-1.4,1.2-2.4,1.5
		c-1,0.4-2,0.5-3.1,0.5s-2.1-0.2-3.1-0.5c-1-0.4-1.8-0.9-2.6-1.6s-1.3-1.5-1.7-2.5s-0.6-2.1-0.6-3.3c0-1.2,0.2-2.3,0.6-3.3
		c0.4-1,1-1.8,1.7-2.5s1.6-1.2,2.5-1.6s2-0.6,3.1-0.6s2.2,0.2,3.2,0.6c1,0.4,1.8,1,2.4,1.7L211.3,15.4z"/>
	<path class="st0" d="M231,18.9c0,0.2,0,0.3,0,0.5s0,0.3,0,0.5h-11.3c0,0.5,0.2,1,0.4,1.5c0.2,0.4,0.6,0.8,0.9,1.1
		c0.4,0.3,0.8,0.6,1.3,0.8s1,0.3,1.5,0.3c0.9,0,1.7-0.2,2.4-0.5c0.6-0.3,1.2-0.8,1.6-1.4l2.5,2c-1.5,2-3.6,3-6.4,3
		c-1.2,0-2.2-0.2-3.2-0.5s-1.8-0.9-2.5-1.5c-0.7-0.7-1.3-1.5-1.7-2.4c-0.4-1-0.6-2.1-0.6-3.3c0-1.2,0.2-2.3,0.6-3.3
		c0.4-1,1-1.8,1.7-2.5s1.5-1.2,2.5-1.6c1-0.4,2-0.6,3.1-0.6c1,0,2,0.2,2.9,0.5s1.6,0.8,2.3,1.5c0.6,0.7,1.1,1.5,1.5,2.5
		C230.9,16.4,231,17.6,231,18.9z M227.3,17.2c0-0.5-0.1-0.9-0.2-1.4c-0.1-0.4-0.3-0.8-0.6-1.1s-0.7-0.6-1.1-0.8
		c-0.4-0.2-1-0.3-1.6-0.3c-1.1,0-2.1,0.3-2.8,1c-0.8,0.7-1.2,1.5-1.3,2.6H227.3z"/>
	<path class="st0" d="M235.4,11.3h3.6v2.5h0.1c0.4-0.9,1-1.6,1.7-2.1s1.6-0.8,2.6-0.8c0.1,0,0.3,0,0.5,0s0.3,0,0.4,0.1v3.4
		c-0.2-0.1-0.5-0.1-0.6-0.1c-0.2,0-0.3,0-0.5,0c-0.8,0-1.5,0.2-2,0.5s-0.9,0.7-1.2,1.1c-0.3,0.4-0.5,0.9-0.6,1.3
		c-0.1,0.5-0.2,0.8-0.2,1.1v8h-3.7v-15C235.5,11.3,235.4,11.3,235.4,11.3z"/>
	<path class="st0" d="M256.5,4.2h3.9v21.9h-3.9V4.2z"/>
	<path class="st0" d="M265.9,11.3h3.5v2.4h0.1c0.3-0.7,0.9-1.4,1.7-2c0.8-0.6,1.8-0.9,2.9-0.9c1,0,1.8,0.2,2.5,0.5s1.3,0.8,1.7,1.3
		s0.8,1.2,1,1.9s0.3,1.5,0.3,2.2V26h-3.7v-8.2c0-0.4,0-0.9-0.1-1.4s-0.2-0.9-0.4-1.3c-0.2-0.4-0.5-0.7-0.9-0.9s-0.8-0.4-1.4-0.4
		s-1.1,0.1-1.5,0.4c-0.4,0.2-0.8,0.5-1.1,0.9s-0.5,0.8-0.6,1.3s-0.2,1-0.2,1.5v8.2H266L265.9,11.3L265.9,11.3z"/>
	<path class="st0" d="M293.1,15.2c-0.3-0.4-0.8-0.8-1.4-1.1s-1.2-0.5-1.9-0.5c-0.6,0-1.1,0.1-1.6,0.4s-0.7,0.7-0.7,1.2
		c0,0.6,0.3,1,0.8,1.2s1.3,0.5,2.4,0.7c0.6,0.1,1.1,0.3,1.7,0.5s1.1,0.5,1.5,0.8c0.5,0.3,0.8,0.8,1.1,1.3c0.3,0.5,0.4,1.1,0.4,1.8
		c0,0.9-0.2,1.7-0.5,2.3s-0.8,1.1-1.4,1.5s-1.2,0.7-2,0.9c-0.8,0.2-1.5,0.3-2.3,0.3c-1.2,0-2.3-0.2-3.4-0.6s-2-1-2.7-1.8l2.4-2.3
		c0.4,0.5,1,1,1.6,1.3c0.7,0.4,1.4,0.5,2.2,0.5c0.3,0,0.5,0,0.8-0.1s0.5-0.2,0.8-0.3c0.2-0.1,0.4-0.3,0.6-0.5
		c0.1-0.2,0.2-0.5,0.2-0.8c0-0.6-0.3-1.1-0.9-1.3c-0.6-0.3-1.4-0.5-2.6-0.8c-0.6-0.1-1.1-0.3-1.6-0.5s-1-0.5-1.4-0.8s-0.7-0.7-1-1.2
		c-0.2-0.5-0.4-1.1-0.4-1.8c0-0.8,0.2-1.5,0.5-2.1c0.3-0.6,0.8-1.1,1.3-1.5c0.6-0.4,1.2-0.7,1.9-0.9s1.4-0.3,2.2-0.3
		c1.1,0,2.1,0.2,3.1,0.6c1,0.4,1.8,0.9,2.4,1.7L293.1,15.2z"/>
	<path class="st0" d="M298.1,14.3v-3h2.6V7h3.7v4.3h3.7v3h-3.7v6.9c0,0.7,0.1,1.2,0.4,1.6c0.2,0.4,0.8,0.7,1.6,0.7
		c0.2,0,0.5,0,0.8-0.1s0.5-0.1,0.8-0.2l0.1,2.9c-0.3,0.1-0.7,0.2-1.2,0.3c-0.5,0.1-0.9,0.1-1.3,0.1c-1,0-1.8-0.1-2.4-0.4
		s-1.1-0.7-1.5-1.1c-0.4-0.5-0.6-1-0.7-1.7c-0.1-0.6-0.2-1.3-0.2-2v-6.9L298.1,14.3L298.1,14.3z"/>
	<path class="st0" d="M311.2,6.2c0-0.6,0.2-1.1,0.7-1.6c0.4-0.4,1-0.7,1.7-0.7s1.3,0.2,1.7,0.6c0.5,0.4,0.7,1,0.7,1.6
		s-0.2,1.2-0.7,1.6s-1,0.6-1.7,0.6s-1.2-0.2-1.7-0.7C311.4,7.3,311.2,6.8,311.2,6.2z M311.7,11.3h3.7v14.9h-3.7V11.3z"/>
	<path class="st0" d="M318.7,14.3v-3h2.6V7h3.7v4.3h3.7v3H325v6.9c0,0.7,0.1,1.2,0.4,1.6c0.2,0.4,0.8,0.7,1.6,0.7
		c0.2,0,0.5,0,0.8-0.1s0.5-0.1,0.8-0.2l0.1,2.9c-0.3,0.1-0.7,0.2-1.2,0.3c-0.5,0.1-0.9,0.1-1.3,0.1c-1,0-1.8-0.1-2.4-0.4
		s-1.1-0.7-1.5-1.1c-0.4-0.5-0.6-1-0.7-1.7c-0.1-0.6-0.2-1.3-0.2-2v-6.9L318.7,14.3L318.7,14.3z"/>
	<path class="st0" d="M345.9,26.2h-3.5v-2.4h-0.1c-0.3,0.7-0.9,1.4-1.7,2s-1.8,0.9-2.9,0.9c-1,0-1.8-0.2-2.5-0.5s-1.3-0.8-1.7-1.3
		c-0.4-0.6-0.8-1.2-1-1.9c-0.2-0.7-0.3-1.5-0.3-2.2v-9.3h3.7v8.2c0,0.4,0,0.9,0.1,1.4s0.2,0.9,0.4,1.3c0.2,0.4,0.5,0.7,0.9,0.9
		c0.4,0.2,0.8,0.4,1.4,0.4s1.1-0.1,1.5-0.4c0.4-0.2,0.8-0.5,1.1-0.9c0.3-0.4,0.5-0.8,0.6-1.3s0.2-1,0.2-1.5v-8.2h3.7L345.9,26.2
		L345.9,26.2z"/>
	<path class="st0" d="M349.2,14.3v-3h2.6V7h3.7v4.3h3.7v3h-3.7v6.9c0,0.7,0.1,1.2,0.4,1.6c0.2,0.4,0.8,0.7,1.6,0.7
		c0.2,0,0.5,0,0.8-0.1s0.5-0.1,0.8-0.2l0.1,2.9c-0.3,0.1-0.7,0.2-1.2,0.3c-0.5,0.1-0.9,0.1-1.3,0.1c-1,0-1.8-0.1-2.4-0.4
		s-1.1-0.7-1.5-1.1c-0.4-0.5-0.6-1-0.7-1.7c-0.1-0.6-0.2-1.3-0.2-2v-6.9L349.2,14.3L349.2,14.3z"/>
	<path class="st0" d="M376.8,18.9c0,0.2,0,0.3,0,0.5s0,0.3,0,0.5h-11.3c0,0.5,0.2,1,0.4,1.5c0.2,0.4,0.6,0.8,0.9,1.1
		c0.4,0.3,0.8,0.6,1.3,0.8s1,0.3,1.5,0.3c0.9,0,1.7-0.2,2.4-0.5c0.6-0.3,1.2-0.8,1.6-1.4l2.5,2c-1.5,2-3.6,3-6.4,3
		c-1.2,0-2.2-0.2-3.2-0.5s-1.8-0.9-2.5-1.5c-0.7-0.7-1.3-1.5-1.7-2.4c-0.4-1-0.6-2.1-0.6-3.3c0-1.2,0.2-2.3,0.6-3.3s1-1.8,1.7-2.5
		s1.5-1.2,2.5-1.6c1-0.4,2-0.6,3.1-0.6c1,0,2,0.2,2.9,0.5s1.6,0.8,2.3,1.5c0.6,0.7,1.1,1.5,1.5,2.5
		C376.6,16.4,376.8,17.6,376.8,18.9z M373.1,17.2c0-0.5-0.1-0.9-0.2-1.4c-0.1-0.4-0.3-0.8-0.6-1.1c-0.3-0.3-0.7-0.6-1.1-0.8
		s-1-0.3-1.6-0.3c-1.1,0-2.1,0.3-2.8,1c-0.8,0.7-1.2,1.5-1.3,2.6H373.1z"/>
</g>
<g>
	<path class="st0" d="M8.9,53.2L8.9,53.2c-0.3,0.4-0.7,0.8-1.2,1.1s-1.1,0.4-1.8,0.4c-0.4,0-0.8-0.1-1.2-0.2
		c-0.4-0.1-0.8-0.3-1.2-0.5s-0.6-0.5-0.9-0.9c-0.2-0.4-0.4-0.9-0.4-1.4c0-0.7,0.2-1.3,0.6-1.7s0.9-0.8,1.6-1
		c0.6-0.2,1.3-0.4,2.1-0.5s1.5-0.1,2.3-0.1v-0.2c0-0.6-0.2-1-0.7-1.3c-0.4-0.3-1-0.4-1.5-0.4s-1,0.1-1.5,0.3s-0.9,0.5-1.2,0.8
		L2.8,46c0.5-0.5,1.2-0.9,1.9-1.1c0.7-0.3,1.4-0.4,2.2-0.4c0.9,0,1.6,0.1,2.1,0.4c0.6,0.2,1,0.6,1.3,0.9c0.3,0.4,0.5,0.8,0.7,1.3
		c0.1,0.5,0.2,1,0.2,1.4v5.8H8.9V53.2z M8.9,50H8.4c-0.4,0-0.8,0-1.2,0c-0.4,0-0.8,0.1-1.2,0.2s-0.7,0.4-1,0.6
		c-0.2,0.2-0.4,0.5-0.4,0.9c0,0.2,0,0.4,0.1,0.6c0.1,0.2,0.2,0.3,0.4,0.4s0.3,0.2,0.5,0.2S6,53,6.2,53c0.8,0,1.5-0.2,1.9-0.7
		c0.4-0.4,0.6-1,0.6-1.8V50H8.9z"/>
	<path class="st0" d="M13.2,46.7v-1.9h1.7V42h2.4v2.8h2.4v1.9h-2.4v4.5c0,0.4,0.1,0.8,0.2,1.1c0.2,0.3,0.5,0.4,1,0.4
		c0.2,0,0.3,0,0.5,0s0.4-0.1,0.5-0.1l0.1,1.9c-0.2,0.1-0.5,0.1-0.8,0.2c-0.3,0-0.6,0.1-0.8,0.1c-0.6,0-1.2-0.1-1.6-0.3
		s-0.7-0.4-1-0.7c-0.2-0.3-0.4-0.7-0.5-1.1c-0.1-0.4-0.1-0.8-0.1-1.3v-4.5h-1.6C13.2,46.9,13.2,46.7,13.2,46.7z"/>
	<path class="st0" d="M26.2,46.7v-1.9h1.7V42h2.4v2.8h2.4v1.9h-2.4v4.5c0,0.4,0.1,0.8,0.2,1.1c0.2,0.3,0.5,0.4,1,0.4
		c0.2,0,0.3,0,0.5,0c0.2,0,0.4-0.1,0.5-0.1l0.1,1.9c-0.2,0.1-0.5,0.1-0.8,0.2c-0.3,0-0.6,0.1-0.8,0.1c-0.6,0-1.2-0.1-1.6-0.3
		s-0.7-0.4-1-0.7c-0.2-0.3-0.4-0.7-0.5-1.1c-0.1-0.4-0.1-0.8-0.1-1.3v-4.5h-1.6C26.2,46.9,26.2,46.7,26.2,46.7z"/>
	<path class="st0" d="M40.4,44.5c0.6,0,1.2,0.1,1.6,0.3c0.4,0.2,0.8,0.5,1.1,0.9s0.5,0.8,0.6,1.2c0.1,0.5,0.2,0.9,0.2,1.4v6h-2.4V49
		c0-0.3,0-0.6-0.1-0.9c0-0.3-0.1-0.6-0.2-0.8c-0.1-0.2-0.3-0.4-0.5-0.6c-0.2-0.2-0.5-0.2-0.9-0.2s-0.7,0.1-1,0.2
		c-0.3,0.1-0.5,0.3-0.7,0.6c-0.2,0.2-0.3,0.5-0.4,0.8c-0.1,0.3-0.1,0.6-0.1,0.9v5.2h-2.4V39.3h2.4v6.9l0,0c0.1-0.2,0.2-0.4,0.4-0.6
		c0.2-0.2,0.4-0.4,0.6-0.5c0.2-0.2,0.5-0.3,0.8-0.4C39.7,44.6,40.1,44.5,40.4,44.5z"/>
	<path class="st0" d="M56.5,49.7c0,0.1,0,0.2,0,0.3s0,0.2,0,0.3h-7.3c0,0.3,0.1,0.7,0.3,1s0.4,0.5,0.6,0.7c0.3,0.2,0.5,0.4,0.9,0.5
		c0.3,0.1,0.7,0.2,1,0.2c0.6,0,1.1-0.1,1.5-0.3s0.8-0.5,1-0.9l1.6,1.3c-0.9,1.3-2.3,1.9-4.1,1.9c-0.7,0-1.4-0.1-2.1-0.3
		c-0.6-0.2-1.2-0.6-1.6-1c-0.5-0.4-0.8-0.9-1.1-1.6c-0.3-0.6-0.4-1.3-0.4-2.1s0.1-1.5,0.4-2.1c0.3-0.6,0.6-1.2,1.1-1.6
		c0.5-0.4,1-0.8,1.6-1s1.3-0.4,2-0.4s1.3,0.1,1.8,0.3c0.6,0.2,1.1,0.5,1.5,1c0.4,0.4,0.7,1,1,1.6C56.4,48.1,56.5,48.8,56.5,49.7z
		 M54.1,48.6c0-0.3,0-0.6-0.1-0.9c-0.1-0.3-0.2-0.5-0.4-0.7s-0.4-0.4-0.7-0.5s-0.6-0.2-1-0.2c-0.7,0-1.3,0.2-1.8,0.6
		c-0.5,0.4-0.8,1-0.8,1.7C49.3,48.6,54.1,48.6,54.1,48.6z"/>
	<path class="st0" d="M65.2,40.2h3.3l6.6,10.6l0,0V40.2h2.5v14.2h-3.2l-6.7-10.9l0,0v10.9h-2.5C65.2,54.4,65.2,40.2,65.2,40.2z"/>
	<path class="st0" d="M87.2,53.2L87.2,53.2c-0.3,0.4-0.7,0.8-1.2,1.1s-1.1,0.4-1.8,0.4c-0.4,0-0.8-0.1-1.2-0.2
		c-0.4-0.1-0.8-0.3-1.2-0.5c-0.4-0.2-0.6-0.5-0.9-0.9c-0.2-0.4-0.4-0.9-0.4-1.4c0-0.7,0.2-1.3,0.6-1.7s0.9-0.8,1.6-1
		c0.6-0.2,1.3-0.4,2.1-0.5c0.8-0.1,1.5-0.1,2.3-0.1v-0.2c0-0.6-0.2-1-0.7-1.3s-1-0.4-1.5-0.4s-1,0.1-1.5,0.3s-0.9,0.5-1.2,0.8
		L81.1,46c0.5-0.5,1.2-0.9,1.9-1.1c0.7-0.3,1.4-0.4,2.2-0.4c0.9,0,1.6,0.1,2.1,0.4c0.6,0.2,1,0.6,1.3,0.9c0.3,0.4,0.5,0.8,0.7,1.3
		c0.1,0.5,0.2,1,0.2,1.4v5.8h-2.2L87.2,53.2L87.2,53.2z M87.2,50h-0.5c-0.4,0-0.8,0-1.2,0c-0.4,0-0.8,0.1-1.2,0.2s-0.7,0.3-0.9,0.5
		C83.1,51,83,51.2,83,51.6c0,0.2,0,0.4,0.1,0.6c0.1,0.2,0.2,0.3,0.4,0.4s0.3,0.2,0.5,0.2s0.4,0.1,0.6,0.1c0.8,0,1.5-0.2,1.9-0.7
		c0.4-0.4,0.6-1,0.6-1.8L87.2,50L87.2,50z"/>
	<path class="st0" d="M91.5,46.7v-1.9h1.7V42h2.4v2.8H98v1.9h-2.4v4.5c0,0.4,0.1,0.8,0.2,1.1c0.2,0.3,0.5,0.4,1,0.4
		c0.2,0,0.3,0,0.5,0s0.4-0.1,0.5-0.1l0.1,1.9c-0.2,0.1-0.5,0.1-0.8,0.2c-0.3,0-0.6,0.1-0.8,0.1c-0.6,0-1.2-0.1-1.6-0.3
		s-0.7-0.4-1-0.7c-0.2-0.3-0.4-0.7-0.5-1.1c-0.1-0.4-0.1-0.8-0.1-1.3v-4.5h-1.6C91.5,46.9,91.5,46.7,91.5,46.7z"/>
	<path class="st0" d="M100,41.5c0-0.4,0.1-0.7,0.4-1s0.6-0.4,1.1-0.4c0.4,0,0.8,0.1,1.1,0.4c0.3,0.3,0.5,0.6,0.5,1s-0.1,0.8-0.5,1
		c-0.3,0.3-0.7,0.4-1.1,0.4s-0.8-0.1-1.1-0.4C100.1,42.3,100,41.9,100,41.5z M100.3,44.8h2.4v9.6h-2.4V44.8z"/>
	<path class="st0" d="M105.6,49.5c0-0.8,0.1-1.5,0.4-2.1s0.6-1.1,1.1-1.6c0.5-0.4,1-0.8,1.7-1c0.6-0.2,1.3-0.4,2-0.4s1.4,0.1,2,0.4
		c0.6,0.2,1.2,0.6,1.7,1s0.8,1,1.1,1.6c0.3,0.6,0.4,1.3,0.4,2.1s-0.1,1.5-0.4,2.1s-0.6,1.2-1.1,1.6s-1,0.8-1.7,1
		c-0.6,0.3-1.3,0.4-2,0.4s-1.4-0.1-2-0.4c-0.6-0.3-1.2-0.6-1.7-1s-0.8-1-1.1-1.6C105.7,51,105.6,50.3,105.6,49.5z M108,49.5
		c0,0.4,0.1,0.7,0.2,1.1c0.1,0.4,0.3,0.7,0.5,1s0.5,0.5,0.9,0.7c0.3,0.2,0.8,0.3,1.2,0.3c0.5,0,0.9-0.1,1.2-0.3
		c0.3-0.2,0.6-0.4,0.9-0.7c0.2-0.3,0.4-0.6,0.5-1s0.2-0.7,0.2-1.1s-0.1-0.7-0.2-1.1c-0.1-0.4-0.3-0.7-0.5-1s-0.5-0.5-0.9-0.7
		c-0.3-0.2-0.8-0.3-1.2-0.3c-0.5,0-0.9,0.1-1.2,0.3c-0.3,0.2-0.6,0.4-0.9,0.7c-0.2,0.3-0.4,0.6-0.5,1C108.1,48.8,108,49.2,108,49.5z
		"/>
	<path class="st0" d="M118.9,44.8h2.3v1.5l0,0c0.2-0.5,0.6-0.9,1.1-1.3c0.5-0.4,1.1-0.5,1.9-0.5c0.6,0,1.2,0.1,1.6,0.3
		s0.8,0.5,1.1,0.9c0.3,0.4,0.5,0.8,0.6,1.2c0.1,0.5,0.2,0.9,0.2,1.4v6h-2.4V49c0-0.3,0-0.6-0.1-0.9c0-0.3-0.1-0.6-0.3-0.8
		c-0.1-0.2-0.3-0.5-0.5-0.6c-0.2-0.2-0.5-0.2-0.9-0.2s-0.7,0.1-1,0.2s-0.5,0.4-0.7,0.6c-0.2,0.2-0.3,0.5-0.4,0.8s-0.1,0.6-0.1,1v5.3
		h-2.4C118.9,54.4,118.9,44.8,118.9,44.8z"/>
	<path class="st0" d="M137.1,53.2L137.1,53.2c-0.3,0.4-0.7,0.8-1.2,1.1s-1.1,0.4-1.8,0.4c-0.4,0-0.8-0.1-1.2-0.2
		c-0.4-0.1-0.8-0.3-1.2-0.5s-0.6-0.5-0.9-0.9c-0.2-0.4-0.4-0.9-0.4-1.4c0-0.7,0.2-1.3,0.6-1.7c0.4-0.4,0.9-0.8,1.6-1
		c0.6-0.2,1.3-0.4,2.1-0.5s1.5-0.1,2.3-0.1v-0.2c0-0.6-0.2-1-0.7-1.3s-1-0.4-1.5-0.4s-1,0.1-1.5,0.3s-0.9,0.5-1.2,0.8L131,46
		c0.5-0.5,1.2-0.9,1.9-1.1c0.7-0.3,1.4-0.4,2.2-0.4c0.9,0,1.6,0.1,2.1,0.4c0.6,0.2,1,0.6,1.3,0.9c0.3,0.4,0.5,0.8,0.7,1.3
		c0.1,0.5,0.2,1,0.2,1.4v5.8h-2.2L137.1,53.2L137.1,53.2z M137,50h-0.5c-0.4,0-0.8,0-1.2,0s-0.8,0.1-1.2,0.2s-0.7,0.3-0.9,0.5
		s-0.4,0.5-0.4,0.9c0,0.2,0,0.4,0.1,0.6c0.1,0.2,0.2,0.3,0.4,0.4s0.3,0.2,0.5,0.2s0.4,0.1,0.6,0.1c0.8,0,1.5-0.2,1.9-0.7
		c0.4-0.4,0.6-1,0.6-1.8L137,50L137,50z"/>
	<path class="st0" d="M142.7,39.3h2.4v15.1h-2.4V39.3z"/>
	<path class="st0" d="M154.4,40.2h2.5v14.2h-2.5V40.2z"/>
	<path class="st0" d="M160.5,44.8h2.3v1.5l0,0c0.2-0.5,0.6-0.9,1.1-1.3c0.5-0.4,1.1-0.5,1.9-0.5c0.6,0,1.2,0.1,1.6,0.3
		c0.4,0.2,0.8,0.5,1.1,0.9s0.5,0.8,0.6,1.2c0.1,0.5,0.2,0.9,0.2,1.4v6h-2.4V49c0-0.3,0-0.6-0.1-0.9c0-0.3-0.1-0.6-0.3-0.8
		c-0.1-0.2-0.3-0.5-0.5-0.6c-0.2-0.2-0.5-0.2-0.9-0.2s-0.7,0.1-1,0.2s-0.5,0.4-0.7,0.6c-0.2,0.2-0.3,0.5-0.4,0.8
		c-0.1,0.3-0.1,0.6-0.1,1v5.3h-2.4L160.5,44.8L160.5,44.8z"/>
	<path class="st0" d="M178.1,47.3c-0.2-0.3-0.5-0.5-0.9-0.7s-0.8-0.3-1.2-0.3s-0.7,0.1-1.1,0.2c-0.3,0.2-0.5,0.4-0.5,0.8
		c0,0.4,0.2,0.6,0.5,0.8s0.9,0.3,1.5,0.5c0.4,0.1,0.7,0.2,1.1,0.3c0.4,0.1,0.7,0.3,1,0.5s0.5,0.5,0.7,0.8s0.3,0.7,0.3,1.2
		c0,0.6-0.1,1.1-0.3,1.5s-0.5,0.7-0.9,1s-0.8,0.4-1.3,0.5s-1,0.2-1.5,0.2c-0.7,0-1.5-0.1-2.2-0.4c-0.7-0.3-1.3-0.7-1.8-1.2l1.6-1.5
		c0.3,0.3,0.6,0.6,1,0.9s0.9,0.3,1.4,0.3c0.2,0,0.4,0,0.5-0.1s0.3-0.1,0.5-0.2c0.2-0.1,0.3-0.2,0.4-0.4c0.1-0.1,0.1-0.3,0.1-0.5
		c0-0.4-0.2-0.7-0.5-0.9c-0.4-0.2-0.9-0.3-1.7-0.5c-0.4-0.1-0.7-0.2-1-0.3s-0.6-0.3-0.9-0.5c-0.3-0.2-0.5-0.5-0.6-0.8
		c-0.2-0.3-0.2-0.7-0.2-1.1c0-0.5,0.1-1,0.3-1.4s0.5-0.7,0.9-0.9s0.8-0.4,1.2-0.6c0.5-0.1,0.9-0.2,1.4-0.2c0.7,0,1.4,0.1,2,0.4
		c0.7,0.2,1.2,0.6,1.6,1.1L178.1,47.3z"/>
	<path class="st0" d="M181.4,46.7v-1.9h1.7V42h2.4v2.8h2.4v1.9h-2.4v4.5c0,0.4,0.1,0.8,0.2,1.1c0.2,0.3,0.5,0.4,1,0.4
		c0.2,0,0.3,0,0.5,0s0.4-0.1,0.5-0.1l0.1,1.9c-0.2,0.1-0.5,0.1-0.8,0.2c-0.3,0-0.6,0.1-0.8,0.1c-0.6,0-1.2-0.1-1.6-0.3
		c-0.4-0.2-0.7-0.4-1-0.7c-0.2-0.3-0.4-0.7-0.5-1.1c-0.1-0.4-0.1-0.8-0.1-1.3v-4.5h-1.6L181.4,46.7L181.4,46.7z"/>
	<path class="st0" d="M189.9,41.5c0-0.4,0.1-0.7,0.4-1c0.3-0.3,0.6-0.4,1.1-0.4c0.4,0,0.8,0.1,1.1,0.4c0.3,0.3,0.5,0.6,0.5,1
		s-0.1,0.8-0.5,1c-0.3,0.3-0.7,0.4-1.1,0.4c-0.4,0-0.8-0.1-1.1-0.4C190,42.3,189.9,41.9,189.9,41.5z M190.2,44.8h2.4v9.6h-2.4V44.8z
		"/>
	<path class="st0" d="M194.8,46.7v-1.9h1.7V42h2.4v2.8h2.4v1.9h-2.4v4.5c0,0.4,0.1,0.8,0.2,1.1c0.2,0.3,0.5,0.4,1,0.4
		c0.2,0,0.3,0,0.5,0s0.4-0.1,0.5-0.1l0.1,1.9c-0.2,0.1-0.5,0.1-0.8,0.2c-0.3,0-0.6,0.1-0.8,0.1c-0.6,0-1.2-0.1-1.6-0.3
		c-0.4-0.2-0.7-0.4-1-0.7c-0.2-0.3-0.4-0.7-0.5-1.1c-0.1-0.4-0.1-0.8-0.1-1.3v-4.5h-1.6L194.8,46.7L194.8,46.7z"/>
	<path class="st0" d="M212.4,54.4h-2.3v-1.5l0,0c-0.2,0.5-0.6,0.9-1.1,1.3c-0.5,0.4-1.1,0.5-1.9,0.5c-0.6,0-1.2-0.1-1.6-0.3
		c-0.4-0.2-0.8-0.5-1.1-0.9s-0.5-0.8-0.6-1.2c-0.1-0.5-0.2-0.9-0.2-1.4v-6h2.4v5.3c0,0.3,0,0.6,0.1,0.9s0.1,0.6,0.3,0.8
		c0.1,0.2,0.3,0.4,0.5,0.6s0.5,0.2,0.9,0.2s0.7-0.1,1-0.2c0.3-0.2,0.5-0.3,0.7-0.6c0.2-0.2,0.3-0.5,0.4-0.8c0.1-0.3,0.1-0.6,0.1-0.9
		v-5.3h2.4L212.4,54.4L212.4,54.4z"/>
	<path class="st0" d="M214.6,46.7v-1.9h1.7V42h2.4v2.8h2.4v1.9h-2.4v4.5c0,0.4,0.1,0.8,0.2,1.1c0.2,0.3,0.5,0.4,1,0.4
		c0.2,0,0.3,0,0.5,0s0.4-0.1,0.5-0.1l0.1,1.9c-0.2,0.1-0.5,0.1-0.8,0.2c-0.3,0-0.6,0.1-0.8,0.1c-0.6,0-1.2-0.1-1.6-0.3
		c-0.4-0.2-0.7-0.4-1-0.7c-0.2-0.3-0.4-0.7-0.5-1.1c-0.1-0.4-0.1-0.8-0.1-1.3v-4.5h-1.6L214.6,46.7L214.6,46.7z"/>
	<path class="st0" d="M232.5,49.7c0,0.1,0,0.2,0,0.3s0,0.2,0,0.3h-7.3c0,0.3,0.1,0.7,0.3,1s0.4,0.5,0.6,0.7c0.3,0.2,0.5,0.4,0.9,0.5
		c0.3,0.1,0.7,0.2,1,0.2c0.6,0,1.1-0.1,1.5-0.3s0.8-0.5,1-0.9l1.6,1.3c-0.9,1.3-2.3,1.9-4.1,1.9c-0.7,0-1.4-0.1-2.1-0.3
		c-0.6-0.2-1.2-0.6-1.6-1c-0.5-0.4-0.8-0.9-1.1-1.6c-0.3-0.6-0.4-1.3-0.4-2.1s0.1-1.5,0.4-2.1c0.3-0.6,0.6-1.2,1.1-1.6
		c0.5-0.4,1-0.8,1.6-1s1.3-0.4,2-0.4s1.3,0.1,1.8,0.3c0.6,0.2,1.1,0.5,1.5,1c0.4,0.4,0.7,1,1,1.6C232.4,48.1,232.5,48.8,232.5,49.7z
		 M230.1,48.6c0-0.3,0-0.6-0.1-0.9c-0.1-0.3-0.2-0.5-0.4-0.7s-0.4-0.4-0.7-0.5s-0.6-0.2-1-0.2c-0.7,0-1.3,0.2-1.8,0.6
		c-0.5,0.4-0.8,1-0.8,1.7C225.3,48.6,230.1,48.6,230.1,48.6z"/>
	<path class="st0" d="M240.7,47.3c-0.2-0.3-0.5-0.5-0.9-0.7s-0.8-0.3-1.2-0.3s-0.7,0.1-1.1,0.2c-0.3,0.2-0.5,0.4-0.5,0.8
		c0,0.4,0.2,0.6,0.5,0.8s0.9,0.3,1.5,0.5c0.4,0.1,0.7,0.2,1.1,0.3c0.4,0.1,0.7,0.3,1,0.5s0.5,0.5,0.7,0.8s0.3,0.7,0.3,1.2
		c0,0.6-0.1,1.1-0.3,1.5s-0.5,0.7-0.9,1s-0.8,0.4-1.3,0.5s-1,0.2-1.5,0.2c-0.7,0-1.5-0.1-2.2-0.4c-0.7-0.3-1.3-0.7-1.8-1.2l1.6-1.5
		c0.3,0.3,0.6,0.6,1,0.9s0.9,0.3,1.4,0.3c0.2,0,0.4,0,0.5-0.1s0.3-0.1,0.5-0.2c0.2-0.1,0.3-0.2,0.4-0.4c0.1-0.1,0.1-0.3,0.1-0.5
		c0-0.4-0.2-0.7-0.5-0.9c-0.4-0.2-0.9-0.3-1.7-0.5c-0.4-0.1-0.7-0.2-1-0.3s-0.6-0.3-0.9-0.5c-0.3-0.2-0.5-0.5-0.6-0.8
		c-0.2-0.3-0.2-0.7-0.2-1.1c0-0.5,0.1-1,0.3-1.4s0.5-0.7,0.9-0.9s0.8-0.4,1.2-0.6c0.5-0.1,0.9-0.2,1.4-0.2c0.7,0,1.4,0.1,2,0.4
		c0.7,0.2,1.2,0.6,1.6,1.1L240.7,47.3z"/>
	<path class="st0" d="M249.9,49.5c0-0.8,0.1-1.5,0.4-2.1c0.3-0.6,0.6-1.1,1.1-1.6c0.5-0.4,1-0.8,1.7-1c0.6-0.2,1.3-0.4,2-0.4
		s1.4,0.1,2,0.4c0.6,0.2,1.2,0.6,1.7,1s0.8,1,1.1,1.6c0.3,0.6,0.4,1.3,0.4,2.1s-0.1,1.5-0.4,2.1s-0.6,1.2-1.1,1.6s-1,0.8-1.7,1
		c-0.6,0.3-1.3,0.4-2,0.4s-1.4-0.1-2-0.4c-0.6-0.3-1.2-0.6-1.7-1s-0.8-1-1.1-1.6C250.1,51,249.9,50.3,249.9,49.5z M252.4,49.5
		c0,0.4,0.1,0.7,0.2,1.1c0.1,0.4,0.3,0.7,0.5,1s0.5,0.5,0.9,0.7c0.3,0.2,0.8,0.3,1.2,0.3c0.5,0,0.9-0.1,1.2-0.3
		c0.3-0.2,0.6-0.4,0.9-0.7c0.2-0.3,0.4-0.6,0.5-1s0.2-0.7,0.2-1.1s-0.1-0.7-0.2-1.1c-0.1-0.4-0.3-0.7-0.5-1s-0.5-0.5-0.9-0.7
		c-0.3-0.2-0.8-0.3-1.2-0.3c-0.5,0-0.9,0.1-1.2,0.3s-0.6,0.4-0.9,0.7c-0.2,0.3-0.4,0.6-0.5,1C252.4,48.8,252.4,49.2,252.4,49.5z"/>
	<path class="st0" d="M263.7,46.7h-1.8v-1.9h1.8v-1.4c0-0.6,0.1-1.1,0.2-1.6s0.3-1,0.6-1.4c0.3-0.4,0.7-0.7,1.2-0.9s1.1-0.4,1.9-0.4
		c0.3,0,0.5,0,0.7,0s0.4,0.1,0.5,0.1l-0.2,2c-0.1,0-0.3-0.1-0.4-0.1s-0.3,0-0.5,0c-0.3,0-0.6,0.1-0.8,0.2c-0.2,0.1-0.4,0.3-0.5,0.5
		s-0.2,0.4-0.2,0.7s-0.1,0.5-0.1,0.7v1.6h2.2v1.9h-2.2v7.7h-2.4L263.7,46.7L263.7,46.7z"/>
	<path class="st0" d="M276.2,40.2h2.5v5.7h6.6v-5.7h2.5v14.2h-2.5v-6.3h-6.6v6.3h-2.5V40.2z"/>
	<path class="st0" d="M300.6,49.7c0,0.1,0,0.2,0,0.3s0,0.2,0,0.3h-7.3c0,0.3,0.1,0.7,0.3,1s0.4,0.5,0.6,0.7c0.3,0.2,0.5,0.4,0.9,0.5
		c0.3,0.1,0.7,0.2,1,0.2c0.6,0,1.1-0.1,1.5-0.3s0.8-0.5,1-0.9l1.6,1.3c-0.9,1.3-2.3,1.9-4.1,1.9c-0.7,0-1.4-0.1-2.1-0.3
		c-0.6-0.2-1.2-0.6-1.6-1c-0.5-0.4-0.8-0.9-1.1-1.6c-0.3-0.6-0.4-1.3-0.4-2.1s0.1-1.5,0.4-2.1s0.6-1.2,1.1-1.6c0.5-0.4,1-0.8,1.6-1
		s1.3-0.4,2-0.4s1.3,0.1,1.8,0.3c0.6,0.2,1.1,0.5,1.5,1c0.4,0.4,0.7,1,1,1.6C300.5,48.1,300.6,48.8,300.6,49.7z M298.2,48.6
		c0-0.3,0-0.6-0.1-0.9c-0.1-0.3-0.2-0.5-0.4-0.7c-0.2-0.2-0.4-0.4-0.7-0.5c-0.3-0.1-0.6-0.2-1-0.2c-0.7,0-1.3,0.2-1.8,0.6
		c-0.5,0.4-0.8,1-0.8,1.7C293.4,48.6,298.2,48.6,298.2,48.6z"/>
	<path class="st0" d="M309.4,53.2L309.4,53.2c-0.3,0.4-0.7,0.8-1.2,1.1s-1.1,0.4-1.8,0.4c-0.4,0-0.8-0.1-1.2-0.2
		c-0.4-0.1-0.8-0.3-1.2-0.5c-0.4-0.2-0.6-0.5-0.9-0.9c-0.2-0.4-0.4-0.9-0.4-1.4c0-0.7,0.2-1.3,0.6-1.7s0.9-0.8,1.6-1
		c0.6-0.2,1.3-0.4,2.1-0.5c0.8-0.1,1.5-0.1,2.3-0.1v-0.2c0-0.6-0.2-1-0.7-1.3s-1-0.4-1.5-0.4s-1,0.1-1.5,0.3s-0.9,0.5-1.2,0.8
		l-1.2-1.5c0.5-0.5,1.2-0.9,1.9-1.1c0.7-0.3,1.4-0.4,2.2-0.4c0.9,0,1.6,0.1,2.1,0.4c0.6,0.2,1,0.6,1.3,0.9c0.3,0.4,0.5,0.8,0.7,1.3
		c0.1,0.5,0.2,1,0.2,1.4v5.8h-2.2L309.4,53.2L309.4,53.2z M309.3,50h-0.5c-0.4,0-0.8,0-1.2,0c-0.4,0-0.8,0.1-1.2,0.2
		s-0.7,0.3-0.9,0.5c-0.2,0.2-0.4,0.5-0.4,0.9c0,0.2,0,0.4,0.1,0.6c0.1,0.2,0.2,0.3,0.4,0.4s0.3,0.2,0.5,0.2s0.4,0.1,0.6,0.1
		c0.8,0,1.5-0.2,1.9-0.7c0.4-0.4,0.6-1,0.6-1.8V50H309.3z"/>
	<path class="st0" d="M315,39.3h2.4v15.1H315V39.3z"/>
	<path class="st0" d="M319.6,46.7v-1.9h1.7V42h2.4v2.8h2.4v1.9h-2.4v4.5c0,0.4,0.1,0.8,0.2,1.1c0.2,0.3,0.5,0.4,1,0.4
		c0.2,0,0.3,0,0.5,0s0.4-0.1,0.5-0.1l0.1,1.9c-0.2,0.1-0.5,0.1-0.8,0.2c-0.3,0-0.6,0.1-0.8,0.1c-0.6,0-1.2-0.1-1.6-0.3
		s-0.7-0.4-1-0.7c-0.2-0.3-0.4-0.7-0.5-1.1c-0.1-0.4-0.1-0.8-0.1-1.3v-4.5h-1.6L319.6,46.7L319.6,46.7z"/>
	<path class="st0" d="M333.9,44.5c0.6,0,1.2,0.1,1.6,0.3s0.8,0.5,1.1,0.9c0.3,0.4,0.5,0.8,0.6,1.2c0.1,0.5,0.2,0.9,0.2,1.4v6H335V49
		c0-0.3,0-0.6-0.1-0.9c0-0.3-0.1-0.6-0.2-0.8s-0.3-0.4-0.5-0.6c-0.2-0.2-0.5-0.2-0.9-0.2s-0.7,0.1-1,0.2c-0.3,0.1-0.5,0.3-0.7,0.6
		c-0.2,0.2-0.3,0.5-0.4,0.8s-0.1,0.6-0.1,0.9v5.2h-2.4V39.3h2.4v6.9l0,0c0.1-0.2,0.2-0.4,0.4-0.6c0.2-0.2,0.4-0.4,0.6-0.5
		c0.2-0.2,0.5-0.3,0.8-0.4C333.2,44.6,333.5,44.5,333.9,44.5z"/>
</g>
</svg>
